<mxfile host="app.diagrams.net" modified="2022-06-23T06:36:22.409Z" agent="5.0 (X11; Linux x86_64) AppleWebKit/537.36 (KHTML, like Gecko) Chrome/102.0.0.0 Safari/537.36" etag="jAzAWzYTf1rkan8jtCnX" version="20.0.2" type="github">
  <diagram id="_DUHSbVkohSqufYsysfm" name="Page-1">
    <mxGraphModel dx="3904" dy="2457" grid="1" gridSize="10" guides="1" tooltips="1" connect="1" arrows="1" fold="1" page="1" pageScale="1" pageWidth="827" pageHeight="1169" math="0" shadow="0">
      <root>
        <mxCell id="0" />
        <mxCell id="1" parent="0" />
        <mxCell id="Mc_kpRLNQTw_WZLSpTaW-3" style="edgeStyle=orthogonalEdgeStyle;rounded=0;orthogonalLoop=1;jettySize=auto;html=1;exitX=0.5;exitY=1;exitDx=0;exitDy=0;fontColor=#000000;" parent="1" edge="1">
          <mxGeometry relative="1" as="geometry">
            <mxPoint x="-95" y="140" as="sourcePoint" />
            <mxPoint x="-95" y="140" as="targetPoint" />
          </mxGeometry>
        </mxCell>
        <mxCell id="Mc_kpRLNQTw_WZLSpTaW-32" value="ShopifyProduct" style="swimlane;fontStyle=1;childLayout=stackLayout;horizontal=1;startSize=26;fillColor=none;horizontalStack=0;resizeParent=1;resizeParentMax=0;resizeLast=0;collapsible=1;marginBottom=0;fontColor=#000000;" parent="1" vertex="1">
          <mxGeometry x="-580" y="10" width="440" height="310" as="geometry" />
        </mxCell>
        <mxCell id="Mc_kpRLNQTw_WZLSpTaW-33" value="variant_id = models.CharField( max_length=2000, default=uuid.uuid4, editable=False, unique=True, primary_key=True   )&#xa;&#xa;product_id = models.CharField(max_length=2000)&#xa;&#xa;image = models.URLField(max_length=2000, null=True, blank=True)&#xa;&#xa;price = models.CharField(max_length=200, null=True, blank=True)&#xa;&#xa;rating = models.CharField(max_length=100, null=True, blank=True)&#xa;&#xa;title = models.CharField(max_length=200, null=True, blank=True)&#xa;&#xa;product_title = models.CharField(max_length=200, null=True, blank=True)&#xa;&#xa; image_file = models.ImageField(upload_to=&quot;assets/image&quot;, null=True, blank=True)&#xa;&#xa; product_url = models.URLField(max_length=5000, null=True, blank=True)&#xa;&#xa; is_ext_product = models.BooleanField(default=False)" style="text;strokeColor=none;fillColor=none;align=left;verticalAlign=top;spacingLeft=4;spacingRight=4;overflow=hidden;rotatable=0;points=[[0,0.5],[1,0.5]];portConstraint=eastwest;fontColor=#000000;" parent="Mc_kpRLNQTw_WZLSpTaW-32" vertex="1">
          <mxGeometry y="26" width="440" height="284" as="geometry" />
        </mxCell>
        <mxCell id="Mc_kpRLNQTw_WZLSpTaW-37" style="edgeStyle=orthogonalEdgeStyle;rounded=0;orthogonalLoop=1;jettySize=auto;html=1;exitX=0.5;exitY=1;exitDx=0;exitDy=0;fontColor=#000000;" parent="1" edge="1">
          <mxGeometry relative="1" as="geometry">
            <mxPoint x="555" y="153" as="sourcePoint" />
            <mxPoint x="555" y="153" as="targetPoint" />
          </mxGeometry>
        </mxCell>
        <mxCell id="Mc_kpRLNQTw_WZLSpTaW-38" value="ShopifyUser" style="swimlane;fontStyle=1;childLayout=stackLayout;horizontal=1;startSize=26;fillColor=none;horizontalStack=0;resizeParent=1;resizeParentMax=0;resizeLast=0;collapsible=1;marginBottom=0;fontColor=#000000;" parent="1" vertex="1">
          <mxGeometry x="-20" y="70" width="300" height="170" as="geometry" />
        </mxCell>
        <mxCell id="Mc_kpRLNQTw_WZLSpTaW-39" value="cart_id = models.BigAutoField(primary_key=True)&#xa;&#xa;user_uuid = models.CharField(max_length=2000, unique=True)&#xa;&#xa;shopify_id = models.CharField(max_length=2000, null=True, blank=True)&#xa;&#xa;cart_json = models.JSONField(null=True, blank=True)&#xa;&#xa;name = models.CharField(max_length=2000, null=True, blank=True)&#xa;" style="text;strokeColor=none;fillColor=none;align=left;verticalAlign=top;spacingLeft=4;spacingRight=4;overflow=hidden;rotatable=0;points=[[0,0.5],[1,0.5]];portConstraint=eastwest;fontColor=#000000;" parent="Mc_kpRLNQTw_WZLSpTaW-38" vertex="1">
          <mxGeometry y="26" width="300" height="144" as="geometry" />
        </mxCell>
        <mxCell id="Mc_kpRLNQTw_WZLSpTaW-40" value="ShopifyCartItems" style="swimlane;fontStyle=1;childLayout=stackLayout;horizontal=1;startSize=26;fillColor=none;horizontalStack=0;resizeParent=1;resizeParentMax=0;resizeLast=0;collapsible=1;marginBottom=0;fontColor=#000000;" parent="1" vertex="1">
          <mxGeometry x="530" y="380" width="280" height="160" as="geometry" />
        </mxCell>
        <mxCell id="Mc_kpRLNQTw_WZLSpTaW-41" value="cart_item_id = models.BigAutoField(primary_key=True)&#xa;&#xa;cart = models.ForeignKey(ShopifyUser, on_delete=models.CASCADE,related_name=&quot;shopify_cart_items&quot;,related_query_name=&quot;shopify_cart_items&quot;,   )&#xa;&#xa;quantity = models.IntegerField(validators=[MinValueValidator(1), MaxValueValidator(5)],default=1,null=True,blank=True,)&#xa;  &#xa;cart_item_json = models.JSONField(null=True, blank=True)shopify_product = models.ForeignKey(ShopifyProduct, on_delete=models.RESTRICT,related_name=&quot;shopify_product&quot;,related_query_name=&quot;shopify_product&quot;,null=True,)&#xa;&#xa;shopify_product = models.ForeignKey(ShopifyProduct,on_delete=models.RESTRICT,related_name=&quot;shopify_product&quot;,related_query_name=&quot;shopify_product&quot;,null=True,)&#xa;" style="text;strokeColor=none;fillColor=none;align=left;verticalAlign=top;spacingLeft=4;spacingRight=4;overflow=hidden;rotatable=0;points=[[0,0.5],[1,0.5]];portConstraint=eastwest;fontColor=#000000;" parent="Mc_kpRLNQTw_WZLSpTaW-40" vertex="1">
          <mxGeometry y="26" width="280" height="134" as="geometry" />
        </mxCell>
        <mxCell id="Mc_kpRLNQTw_WZLSpTaW-48" style="edgeStyle=orthogonalEdgeStyle;rounded=0;orthogonalLoop=1;jettySize=auto;html=1;fontColor=#000000;elbow=vertical;" parent="1" edge="1">
          <mxGeometry relative="1" as="geometry">
            <mxPoint x="530" y="400" as="targetPoint" />
            <mxPoint x="-20" y="110" as="sourcePoint" />
            <Array as="points">
              <mxPoint x="-60" y="110" />
              <mxPoint x="-60" y="400" />
            </Array>
          </mxGeometry>
        </mxCell>
        <mxCell id="Mc_kpRLNQTw_WZLSpTaW-49" value="" style="edgeStyle=orthogonalEdgeStyle;fontSize=12;html=1;endArrow=ERoneToMany;rounded=0;fontColor=#000000;elbow=vertical;exitX=-0.014;exitY=0.925;exitDx=0;exitDy=0;exitPerimeter=0;" parent="1" source="Mc_kpRLNQTw_WZLSpTaW-41" edge="1">
          <mxGeometry width="100" height="100" relative="1" as="geometry">
            <mxPoint x="-430" y="650" as="sourcePoint" />
            <mxPoint x="-580" y="20" as="targetPoint" />
            <Array as="points">
              <mxPoint x="-630" y="530" />
              <mxPoint x="-630" y="20" />
            </Array>
          </mxGeometry>
        </mxCell>
        <mxCell id="Mc_kpRLNQTw_WZLSpTaW-50" value="ShopifyCategory" style="shape=table;startSize=30;container=1;collapsible=1;childLayout=tableLayout;fixedRows=1;rowLines=0;fontStyle=1;align=center;resizeLast=1;fontColor=#000000;" parent="1" vertex="1">
          <mxGeometry x="470" y="30" width="320" height="240" as="geometry">
            <mxRectangle x="501" y="80" width="130" height="30" as="alternateBounds" />
          </mxGeometry>
        </mxCell>
        <mxCell id="Mc_kpRLNQTw_WZLSpTaW-51" value="" style="shape=tableRow;horizontal=0;startSize=0;swimlaneHead=0;swimlaneBody=0;fillColor=none;collapsible=0;dropTarget=0;points=[[0,0.5],[1,0.5]];portConstraint=eastwest;top=0;left=0;right=0;bottom=1;fontColor=#000000;" parent="Mc_kpRLNQTw_WZLSpTaW-50" vertex="1">
          <mxGeometry y="30" width="320" height="30" as="geometry" />
        </mxCell>
        <mxCell id="Mc_kpRLNQTw_WZLSpTaW-52" value="PK" style="shape=partialRectangle;connectable=0;fillColor=none;top=0;left=0;bottom=0;right=0;fontStyle=1;overflow=hidden;fontColor=#000000;" parent="Mc_kpRLNQTw_WZLSpTaW-51" vertex="1">
          <mxGeometry width="20" height="30" as="geometry">
            <mxRectangle width="20" height="30" as="alternateBounds" />
          </mxGeometry>
        </mxCell>
        <mxCell id="Mc_kpRLNQTw_WZLSpTaW-53" value="id=models.BigAutoField(primary_key=True)" style="shape=partialRectangle;connectable=0;fillColor=none;top=0;left=0;bottom=0;right=0;align=left;spacingLeft=6;fontStyle=5;overflow=hidden;fontColor=#000000;" parent="Mc_kpRLNQTw_WZLSpTaW-51" vertex="1">
          <mxGeometry x="20" width="300" height="30" as="geometry">
            <mxRectangle width="300" height="30" as="alternateBounds" />
          </mxGeometry>
        </mxCell>
        <mxCell id="Mc_kpRLNQTw_WZLSpTaW-54" value="" style="shape=tableRow;horizontal=0;startSize=0;swimlaneHead=0;swimlaneBody=0;fillColor=none;collapsible=0;dropTarget=0;points=[[0,0.5],[1,0.5]];portConstraint=eastwest;top=0;left=0;right=0;bottom=0;fontColor=#000000;" parent="Mc_kpRLNQTw_WZLSpTaW-50" vertex="1">
          <mxGeometry y="60" width="320" height="30" as="geometry" />
        </mxCell>
        <mxCell id="Mc_kpRLNQTw_WZLSpTaW-55" value="" style="shape=partialRectangle;connectable=0;fillColor=none;top=0;left=0;bottom=0;right=0;editable=1;overflow=hidden;fontColor=#000000;" parent="Mc_kpRLNQTw_WZLSpTaW-54" vertex="1">
          <mxGeometry width="20" height="30" as="geometry">
            <mxRectangle width="20" height="30" as="alternateBounds" />
          </mxGeometry>
        </mxCell>
        <mxCell id="Mc_kpRLNQTw_WZLSpTaW-56" value="name = models.CharField(max_length=200)" style="shape=partialRectangle;connectable=0;fillColor=none;top=0;left=0;bottom=0;right=0;align=left;spacingLeft=6;overflow=hidden;fontColor=#000000;" parent="Mc_kpRLNQTw_WZLSpTaW-54" vertex="1">
          <mxGeometry x="20" width="300" height="30" as="geometry">
            <mxRectangle width="300" height="30" as="alternateBounds" />
          </mxGeometry>
        </mxCell>
        <mxCell id="Mc_kpRLNQTw_WZLSpTaW-57" value="" style="shape=tableRow;horizontal=0;startSize=0;swimlaneHead=0;swimlaneBody=0;fillColor=none;collapsible=0;dropTarget=0;points=[[0,0.5],[1,0.5]];portConstraint=eastwest;top=0;left=0;right=0;bottom=0;fontColor=#000000;" parent="Mc_kpRLNQTw_WZLSpTaW-50" vertex="1">
          <mxGeometry y="90" width="320" height="30" as="geometry" />
        </mxCell>
        <mxCell id="Mc_kpRLNQTw_WZLSpTaW-58" value="" style="shape=partialRectangle;connectable=0;fillColor=none;top=0;left=0;bottom=0;right=0;editable=1;overflow=hidden;fontColor=#000000;" parent="Mc_kpRLNQTw_WZLSpTaW-57" vertex="1">
          <mxGeometry width="20" height="30" as="geometry">
            <mxRectangle width="20" height="30" as="alternateBounds" />
          </mxGeometry>
        </mxCell>
        <mxCell id="Mc_kpRLNQTw_WZLSpTaW-59" value="shopify_id = models.CharField(max_length=500, unique=True)" style="shape=partialRectangle;connectable=0;fillColor=none;top=0;left=0;bottom=0;right=0;align=left;spacingLeft=6;overflow=hidden;fontColor=#000000;" parent="Mc_kpRLNQTw_WZLSpTaW-57" vertex="1">
          <mxGeometry x="20" width="300" height="30" as="geometry">
            <mxRectangle width="300" height="30" as="alternateBounds" />
          </mxGeometry>
        </mxCell>
        <mxCell id="Mc_kpRLNQTw_WZLSpTaW-60" value="" style="shape=tableRow;horizontal=0;startSize=0;swimlaneHead=0;swimlaneBody=0;fillColor=none;collapsible=0;dropTarget=0;points=[[0,0.5],[1,0.5]];portConstraint=eastwest;top=0;left=0;right=0;bottom=0;fontColor=#000000;" parent="Mc_kpRLNQTw_WZLSpTaW-50" vertex="1">
          <mxGeometry y="120" width="320" height="30" as="geometry" />
        </mxCell>
        <mxCell id="Mc_kpRLNQTw_WZLSpTaW-61" value="" style="shape=partialRectangle;connectable=0;fillColor=none;top=0;left=0;bottom=0;right=0;editable=1;overflow=hidden;fontColor=#000000;" parent="Mc_kpRLNQTw_WZLSpTaW-60" vertex="1">
          <mxGeometry width="20" height="30" as="geometry">
            <mxRectangle width="20" height="30" as="alternateBounds" />
          </mxGeometry>
        </mxCell>
        <mxCell id="Mc_kpRLNQTw_WZLSpTaW-62" value="parent = TreeForeignKey(&quot;self&quot;,on_delete=models.CASCADE,null=True,blank=True,related_name=&quot;children_category&quot;,)" style="shape=partialRectangle;connectable=0;fillColor=none;top=0;left=0;bottom=0;right=0;align=left;spacingLeft=6;overflow=hidden;fontColor=#000000;" parent="Mc_kpRLNQTw_WZLSpTaW-60" vertex="1">
          <mxGeometry x="20" width="300" height="30" as="geometry">
            <mxRectangle width="300" height="30" as="alternateBounds" />
          </mxGeometry>
        </mxCell>
        <mxCell id="Mc_kpRLNQTw_WZLSpTaW-68" value="" style="shape=tableRow;horizontal=0;startSize=0;swimlaneHead=0;swimlaneBody=0;fillColor=none;collapsible=0;dropTarget=0;points=[[0,0.5],[1,0.5]];portConstraint=eastwest;top=0;left=0;right=0;bottom=0;fontColor=#000000;" parent="Mc_kpRLNQTw_WZLSpTaW-50" vertex="1">
          <mxGeometry y="150" width="320" height="30" as="geometry" />
        </mxCell>
        <mxCell id="Mc_kpRLNQTw_WZLSpTaW-69" value="" style="shape=partialRectangle;connectable=0;fillColor=none;top=0;left=0;bottom=0;right=0;editable=1;overflow=hidden;fontColor=#000000;" parent="Mc_kpRLNQTw_WZLSpTaW-68" vertex="1">
          <mxGeometry width="20" height="30" as="geometry">
            <mxRectangle width="20" height="30" as="alternateBounds" />
          </mxGeometry>
        </mxCell>
        <mxCell id="Mc_kpRLNQTw_WZLSpTaW-70" value="parents = ArrayField(models.CharField(max_length=500), null=True, blank=True)" style="shape=partialRectangle;connectable=0;fillColor=none;top=0;left=0;bottom=0;right=0;align=left;spacingLeft=6;overflow=hidden;fontColor=#000000;" parent="Mc_kpRLNQTw_WZLSpTaW-68" vertex="1">
          <mxGeometry x="20" width="300" height="30" as="geometry">
            <mxRectangle width="300" height="30" as="alternateBounds" />
          </mxGeometry>
        </mxCell>
        <mxCell id="Mc_kpRLNQTw_WZLSpTaW-71" value="" style="shape=tableRow;horizontal=0;startSize=0;swimlaneHead=0;swimlaneBody=0;fillColor=none;collapsible=0;dropTarget=0;points=[[0,0.5],[1,0.5]];portConstraint=eastwest;top=0;left=0;right=0;bottom=0;fontColor=#000000;" parent="Mc_kpRLNQTw_WZLSpTaW-50" vertex="1">
          <mxGeometry y="180" width="320" height="30" as="geometry" />
        </mxCell>
        <mxCell id="Mc_kpRLNQTw_WZLSpTaW-72" value="" style="shape=partialRectangle;connectable=0;fillColor=none;top=0;left=0;bottom=0;right=0;editable=1;overflow=hidden;fontColor=#000000;" parent="Mc_kpRLNQTw_WZLSpTaW-71" vertex="1">
          <mxGeometry width="20" height="30" as="geometry">
            <mxRectangle width="20" height="30" as="alternateBounds" />
          </mxGeometry>
        </mxCell>
        <mxCell id="Mc_kpRLNQTw_WZLSpTaW-73" value="tags = ArrayField(ArrayField(models.CharField(max_length=500), null=True, blank=True),null=True,blank=True,)" style="shape=partialRectangle;connectable=0;fillColor=none;top=0;left=0;bottom=0;right=0;align=left;spacingLeft=6;overflow=hidden;fontColor=#000000;" parent="Mc_kpRLNQTw_WZLSpTaW-71" vertex="1">
          <mxGeometry x="20" width="300" height="30" as="geometry">
            <mxRectangle width="300" height="30" as="alternateBounds" />
          </mxGeometry>
        </mxCell>
        <mxCell id="Mc_kpRLNQTw_WZLSpTaW-93" value="" style="shape=tableRow;horizontal=0;startSize=0;swimlaneHead=0;swimlaneBody=0;fillColor=none;collapsible=0;dropTarget=0;points=[[0,0.5],[1,0.5]];portConstraint=eastwest;top=0;left=0;right=0;bottom=0;fontColor=#000000;" parent="Mc_kpRLNQTw_WZLSpTaW-50" vertex="1">
          <mxGeometry y="210" width="320" height="30" as="geometry" />
        </mxCell>
        <mxCell id="Mc_kpRLNQTw_WZLSpTaW-94" value="" style="shape=partialRectangle;connectable=0;fillColor=none;top=0;left=0;bottom=0;right=0;editable=1;overflow=hidden;fontColor=#000000;" parent="Mc_kpRLNQTw_WZLSpTaW-93" vertex="1">
          <mxGeometry width="20" height="30" as="geometry">
            <mxRectangle width="20" height="30" as="alternateBounds" />
          </mxGeometry>
        </mxCell>
        <mxCell id="Mc_kpRLNQTw_WZLSpTaW-95" value="thumbnail = models.URLField(max_length=5000, null=True, blank=True)" style="shape=partialRectangle;connectable=0;fillColor=none;top=0;left=0;bottom=0;right=0;align=left;spacingLeft=6;overflow=hidden;fontColor=#000000;" parent="Mc_kpRLNQTw_WZLSpTaW-93" vertex="1">
          <mxGeometry x="20" width="300" height="30" as="geometry">
            <mxRectangle width="300" height="30" as="alternateBounds" />
          </mxGeometry>
        </mxCell>
        <mxCell id="Mc_kpRLNQTw_WZLSpTaW-111" value="" style="edgeStyle=orthogonalEdgeStyle;fontSize=12;html=1;endArrow=ERone;endFill=1;rounded=0;fontColor=#000000;elbow=vertical;" parent="1" edge="1">
          <mxGeometry width="100" height="100" relative="1" as="geometry">
            <mxPoint x="470" y="170" as="sourcePoint" />
            <mxPoint x="470" y="40" as="targetPoint" />
            <Array as="points">
              <mxPoint x="396" y="170" />
              <mxPoint x="396" y="40" />
            </Array>
          </mxGeometry>
        </mxCell>
        <mxCell id="Mc_kpRLNQTw_WZLSpTaW-134" value="" style="fontSize=12;html=1;endArrow=ERoneToMany;rounded=0;fontColor=#000000;entryX=0;entryY=0.5;entryDx=0;entryDy=0;" parent="1" edge="1" target="Mc_kpRLNQTw_WZLSpTaW-141">
          <mxGeometry width="100" height="100" relative="1" as="geometry">
            <mxPoint x="466" y="60" as="sourcePoint" />
            <mxPoint x="-560" y="585" as="targetPoint" />
            <Array as="points">
              <mxPoint x="430" y="60" />
              <mxPoint x="430" y="500" />
              <mxPoint x="-400" y="500" />
              <mxPoint x="-400" y="645" />
            </Array>
          </mxGeometry>
        </mxCell>
        <mxCell id="Mc_kpRLNQTw_WZLSpTaW-137" value="ShopifyBanners" style="shape=table;startSize=30;container=1;collapsible=1;childLayout=tableLayout;fixedRows=1;rowLines=0;fontStyle=1;align=center;resizeLast=1;fontColor=#000000;" parent="1" vertex="1">
          <mxGeometry x="-330" y="570" width="290" height="230" as="geometry">
            <mxRectangle x="501" y="80" width="130" height="30" as="alternateBounds" />
          </mxGeometry>
        </mxCell>
        <mxCell id="Mc_kpRLNQTw_WZLSpTaW-138" value="" style="shape=tableRow;horizontal=0;startSize=0;swimlaneHead=0;swimlaneBody=0;fillColor=none;collapsible=0;dropTarget=0;points=[[0,0.5],[1,0.5]];portConstraint=eastwest;top=0;left=0;right=0;bottom=1;fontColor=#000000;" parent="Mc_kpRLNQTw_WZLSpTaW-137" vertex="1">
          <mxGeometry y="30" width="290" height="30" as="geometry" />
        </mxCell>
        <mxCell id="Mc_kpRLNQTw_WZLSpTaW-139" value="PK" style="shape=partialRectangle;connectable=0;fillColor=none;top=0;left=0;bottom=0;right=0;fontStyle=1;overflow=hidden;fontColor=#000000;" parent="Mc_kpRLNQTw_WZLSpTaW-138" vertex="1">
          <mxGeometry width="20" height="30" as="geometry">
            <mxRectangle width="20" height="30" as="alternateBounds" />
          </mxGeometry>
        </mxCell>
        <mxCell id="Mc_kpRLNQTw_WZLSpTaW-140" value="id=models.BigAutoField(primary_key=True)" style="shape=partialRectangle;connectable=0;fillColor=none;top=0;left=0;bottom=0;right=0;align=left;spacingLeft=6;fontStyle=5;overflow=hidden;fontColor=#000000;" parent="Mc_kpRLNQTw_WZLSpTaW-138" vertex="1">
          <mxGeometry x="20" width="270" height="30" as="geometry">
            <mxRectangle width="270" height="30" as="alternateBounds" />
          </mxGeometry>
        </mxCell>
        <mxCell id="Mc_kpRLNQTw_WZLSpTaW-141" value="" style="shape=tableRow;horizontal=0;startSize=0;swimlaneHead=0;swimlaneBody=0;fillColor=none;collapsible=0;dropTarget=0;points=[[0,0.5],[1,0.5]];portConstraint=eastwest;top=0;left=0;right=0;bottom=0;fontColor=#000000;" parent="Mc_kpRLNQTw_WZLSpTaW-137" vertex="1">
          <mxGeometry y="60" width="290" height="30" as="geometry" />
        </mxCell>
        <mxCell id="Mc_kpRLNQTw_WZLSpTaW-142" value="" style="shape=partialRectangle;connectable=0;fillColor=none;top=0;left=0;bottom=0;right=0;editable=1;overflow=hidden;fontColor=#000000;" parent="Mc_kpRLNQTw_WZLSpTaW-141" vertex="1">
          <mxGeometry width="20" height="30" as="geometry">
            <mxRectangle width="20" height="30" as="alternateBounds" />
          </mxGeometry>
        </mxCell>
        <mxCell id="Mc_kpRLNQTw_WZLSpTaW-143" value="category = models.ForeignKey(ShopifyCategory,on_delete=models.CASCADE,related_name=&quot;shopify_category&quot;,related_query_name=&quot;shopify_category&quot;,)++" style="shape=partialRectangle;connectable=0;fillColor=none;top=0;left=0;bottom=0;right=0;align=left;spacingLeft=6;overflow=hidden;fontColor=#000000;" parent="Mc_kpRLNQTw_WZLSpTaW-141" vertex="1">
          <mxGeometry x="20" width="270" height="30" as="geometry">
            <mxRectangle width="270" height="30" as="alternateBounds" />
          </mxGeometry>
        </mxCell>
        <mxCell id="Mc_kpRLNQTw_WZLSpTaW-144" value="" style="shape=tableRow;horizontal=0;startSize=0;swimlaneHead=0;swimlaneBody=0;fillColor=none;collapsible=0;dropTarget=0;points=[[0,0.5],[1,0.5]];portConstraint=eastwest;top=0;left=0;right=0;bottom=0;fontColor=#000000;" parent="Mc_kpRLNQTw_WZLSpTaW-137" vertex="1">
          <mxGeometry y="90" width="290" height="30" as="geometry" />
        </mxCell>
        <mxCell id="Mc_kpRLNQTw_WZLSpTaW-145" value="" style="shape=partialRectangle;connectable=0;fillColor=none;top=0;left=0;bottom=0;right=0;editable=1;overflow=hidden;fontColor=#000000;" parent="Mc_kpRLNQTw_WZLSpTaW-144" vertex="1">
          <mxGeometry width="20" height="30" as="geometry">
            <mxRectangle width="20" height="30" as="alternateBounds" />
          </mxGeometry>
        </mxCell>
        <mxCell id="Mc_kpRLNQTw_WZLSpTaW-146" value="name = models.CharField(max_length=200)" style="shape=partialRectangle;connectable=0;fillColor=none;top=0;left=0;bottom=0;right=0;align=left;spacingLeft=6;overflow=hidden;fontColor=#000000;" parent="Mc_kpRLNQTw_WZLSpTaW-144" vertex="1">
          <mxGeometry x="20" width="270" height="30" as="geometry">
            <mxRectangle width="270" height="30" as="alternateBounds" />
          </mxGeometry>
        </mxCell>
        <mxCell id="Mc_kpRLNQTw_WZLSpTaW-147" value="" style="shape=tableRow;horizontal=0;startSize=0;swimlaneHead=0;swimlaneBody=0;fillColor=none;collapsible=0;dropTarget=0;points=[[0,0.5],[1,0.5]];portConstraint=eastwest;top=0;left=0;right=0;bottom=0;fontColor=#000000;" parent="Mc_kpRLNQTw_WZLSpTaW-137" vertex="1">
          <mxGeometry y="120" width="290" height="30" as="geometry" />
        </mxCell>
        <mxCell id="Mc_kpRLNQTw_WZLSpTaW-148" value="" style="shape=partialRectangle;connectable=0;fillColor=none;top=0;left=0;bottom=0;right=0;editable=1;overflow=hidden;fontColor=#000000;" parent="Mc_kpRLNQTw_WZLSpTaW-147" vertex="1">
          <mxGeometry width="20" height="30" as="geometry">
            <mxRectangle width="20" height="30" as="alternateBounds" />
          </mxGeometry>
        </mxCell>
        <mxCell id="Mc_kpRLNQTw_WZLSpTaW-149" value="shopify_id = models.CharField(max_length=500, unique=True)" style="shape=partialRectangle;connectable=0;fillColor=none;top=0;left=0;bottom=0;right=0;align=left;spacingLeft=6;overflow=hidden;fontColor=#000000;" parent="Mc_kpRLNQTw_WZLSpTaW-147" vertex="1">
          <mxGeometry x="20" width="270" height="30" as="geometry">
            <mxRectangle width="270" height="30" as="alternateBounds" />
          </mxGeometry>
        </mxCell>
        <mxCell id="Mc_kpRLNQTw_WZLSpTaW-150" value="" style="shape=tableRow;horizontal=0;startSize=0;swimlaneHead=0;swimlaneBody=0;fillColor=none;collapsible=0;dropTarget=0;points=[[0,0.5],[1,0.5]];portConstraint=eastwest;top=0;left=0;right=0;bottom=0;fontColor=#000000;" parent="Mc_kpRLNQTw_WZLSpTaW-137" vertex="1">
          <mxGeometry y="150" width="290" height="30" as="geometry" />
        </mxCell>
        <mxCell id="Mc_kpRLNQTw_WZLSpTaW-151" value="" style="shape=partialRectangle;connectable=0;fillColor=none;top=0;left=0;bottom=0;right=0;editable=1;overflow=hidden;fontColor=#000000;" parent="Mc_kpRLNQTw_WZLSpTaW-150" vertex="1">
          <mxGeometry width="20" height="30" as="geometry">
            <mxRectangle width="20" height="30" as="alternateBounds" />
          </mxGeometry>
        </mxCell>
        <mxCell id="Mc_kpRLNQTw_WZLSpTaW-152" value="tags = ArrayField(ArrayField(models.CharField(max_length=500), null=True, blank=True),null=True,blank=True,)" style="shape=partialRectangle;connectable=0;fillColor=none;top=0;left=0;bottom=0;right=0;align=left;spacingLeft=6;overflow=hidden;fontColor=#000000;" parent="Mc_kpRLNQTw_WZLSpTaW-150" vertex="1">
          <mxGeometry x="20" width="270" height="30" as="geometry">
            <mxRectangle width="270" height="30" as="alternateBounds" />
          </mxGeometry>
        </mxCell>
        <mxCell id="Mc_kpRLNQTw_WZLSpTaW-153" value="" style="shape=tableRow;horizontal=0;startSize=0;swimlaneHead=0;swimlaneBody=0;fillColor=none;collapsible=0;dropTarget=0;points=[[0,0.5],[1,0.5]];portConstraint=eastwest;top=0;left=0;right=0;bottom=0;fontColor=#000000;" parent="Mc_kpRLNQTw_WZLSpTaW-137" vertex="1">
          <mxGeometry y="180" width="290" height="30" as="geometry" />
        </mxCell>
        <mxCell id="Mc_kpRLNQTw_WZLSpTaW-154" value="" style="shape=partialRectangle;connectable=0;fillColor=none;top=0;left=0;bottom=0;right=0;editable=1;overflow=hidden;fontColor=#000000;" parent="Mc_kpRLNQTw_WZLSpTaW-153" vertex="1">
          <mxGeometry width="20" height="30" as="geometry">
            <mxRectangle width="20" height="30" as="alternateBounds" />
          </mxGeometry>
        </mxCell>
        <mxCell id="Mc_kpRLNQTw_WZLSpTaW-155" value="featured = models.BooleanField(default=False)" style="shape=partialRectangle;connectable=0;fillColor=none;top=0;left=0;bottom=0;right=0;align=left;spacingLeft=6;overflow=hidden;fontColor=#000000;" parent="Mc_kpRLNQTw_WZLSpTaW-153" vertex="1">
          <mxGeometry x="20" width="270" height="30" as="geometry">
            <mxRectangle width="270" height="30" as="alternateBounds" />
          </mxGeometry>
        </mxCell>
        <mxCell id="Mc_kpRLNQTw_WZLSpTaW-156" value="" style="shape=tableRow;horizontal=0;startSize=0;swimlaneHead=0;swimlaneBody=0;fillColor=none;collapsible=0;dropTarget=0;points=[[0,0.5],[1,0.5]];portConstraint=eastwest;top=0;left=0;right=0;bottom=0;fontColor=#000000;" parent="Mc_kpRLNQTw_WZLSpTaW-137" vertex="1">
          <mxGeometry y="210" width="290" height="20" as="geometry" />
        </mxCell>
        <mxCell id="Mc_kpRLNQTw_WZLSpTaW-157" value="" style="shape=partialRectangle;connectable=0;fillColor=none;top=0;left=0;bottom=0;right=0;editable=1;overflow=hidden;fontColor=#000000;" parent="Mc_kpRLNQTw_WZLSpTaW-156" vertex="1">
          <mxGeometry width="20" height="20" as="geometry">
            <mxRectangle width="20" height="20" as="alternateBounds" />
          </mxGeometry>
        </mxCell>
        <mxCell id="Mc_kpRLNQTw_WZLSpTaW-158" value="" style="shape=partialRectangle;connectable=0;fillColor=none;top=0;left=0;bottom=0;right=0;align=left;spacingLeft=6;overflow=hidden;fontColor=#000000;" parent="Mc_kpRLNQTw_WZLSpTaW-156" vertex="1">
          <mxGeometry x="20" width="270" height="20" as="geometry">
            <mxRectangle width="270" height="20" as="alternateBounds" />
          </mxGeometry>
        </mxCell>
        <mxCell id="Mc_kpRLNQTw_WZLSpTaW-159" value="Moment" style="shape=table;startSize=30;container=1;collapsible=1;childLayout=tableLayout;fixedRows=1;rowLines=0;fontStyle=1;align=center;resizeLast=1;fontColor=#000000;" parent="1" vertex="1">
          <mxGeometry x="100" y="-640" width="290" height="230" as="geometry">
            <mxRectangle x="501" y="80" width="130" height="30" as="alternateBounds" />
          </mxGeometry>
        </mxCell>
        <mxCell id="Mc_kpRLNQTw_WZLSpTaW-160" value="" style="shape=tableRow;horizontal=0;startSize=0;swimlaneHead=0;swimlaneBody=0;fillColor=none;collapsible=0;dropTarget=0;points=[[0,0.5],[1,0.5]];portConstraint=eastwest;top=0;left=0;right=0;bottom=1;fontColor=#000000;" parent="Mc_kpRLNQTw_WZLSpTaW-159" vertex="1">
          <mxGeometry y="30" width="290" height="30" as="geometry" />
        </mxCell>
        <mxCell id="Mc_kpRLNQTw_WZLSpTaW-161" value="PK" style="shape=partialRectangle;connectable=0;fillColor=none;top=0;left=0;bottom=0;right=0;fontStyle=1;overflow=hidden;fontColor=#000000;" parent="Mc_kpRLNQTw_WZLSpTaW-160" vertex="1">
          <mxGeometry width="20" height="30" as="geometry">
            <mxRectangle width="20" height="30" as="alternateBounds" />
          </mxGeometry>
        </mxCell>
        <mxCell id="Mc_kpRLNQTw_WZLSpTaW-162" value="moment_id=models.BigAutoField(primary_key=True)" style="shape=partialRectangle;connectable=0;fillColor=none;top=0;left=0;bottom=0;right=0;align=left;spacingLeft=6;fontStyle=5;overflow=hidden;fontColor=#000000;" parent="Mc_kpRLNQTw_WZLSpTaW-160" vertex="1">
          <mxGeometry x="20" width="270" height="30" as="geometry">
            <mxRectangle width="270" height="30" as="alternateBounds" />
          </mxGeometry>
        </mxCell>
        <mxCell id="Mc_kpRLNQTw_WZLSpTaW-163" value="" style="shape=tableRow;horizontal=0;startSize=0;swimlaneHead=0;swimlaneBody=0;fillColor=none;collapsible=0;dropTarget=0;points=[[0,0.5],[1,0.5]];portConstraint=eastwest;top=0;left=0;right=0;bottom=0;fontColor=#000000;" parent="Mc_kpRLNQTw_WZLSpTaW-159" vertex="1">
          <mxGeometry y="60" width="290" height="30" as="geometry" />
        </mxCell>
        <mxCell id="Mc_kpRLNQTw_WZLSpTaW-164" value="" style="shape=partialRectangle;connectable=0;fillColor=none;top=0;left=0;bottom=0;right=0;editable=1;overflow=hidden;fontColor=#000000;" parent="Mc_kpRLNQTw_WZLSpTaW-163" vertex="1">
          <mxGeometry width="20" height="30" as="geometry">
            <mxRectangle width="20" height="30" as="alternateBounds" />
          </mxGeometry>
        </mxCell>
        <mxCell id="Mc_kpRLNQTw_WZLSpTaW-165" value="name = models.CharField(max_length=255)" style="shape=partialRectangle;connectable=0;fillColor=none;top=0;left=0;bottom=0;right=0;align=left;spacingLeft=6;overflow=hidden;fontColor=#000000;" parent="Mc_kpRLNQTw_WZLSpTaW-163" vertex="1">
          <mxGeometry x="20" width="270" height="30" as="geometry">
            <mxRectangle width="270" height="30" as="alternateBounds" />
          </mxGeometry>
        </mxCell>
        <mxCell id="Mc_kpRLNQTw_WZLSpTaW-166" value="" style="shape=tableRow;horizontal=0;startSize=0;swimlaneHead=0;swimlaneBody=0;fillColor=none;collapsible=0;dropTarget=0;points=[[0,0.5],[1,0.5]];portConstraint=eastwest;top=0;left=0;right=0;bottom=0;fontColor=#000000;" parent="Mc_kpRLNQTw_WZLSpTaW-159" vertex="1">
          <mxGeometry y="90" width="290" height="30" as="geometry" />
        </mxCell>
        <mxCell id="Mc_kpRLNQTw_WZLSpTaW-167" value="" style="shape=partialRectangle;connectable=0;fillColor=none;top=0;left=0;bottom=0;right=0;editable=1;overflow=hidden;fontColor=#000000;" parent="Mc_kpRLNQTw_WZLSpTaW-166" vertex="1">
          <mxGeometry width="20" height="30" as="geometry">
            <mxRectangle width="20" height="30" as="alternateBounds" />
          </mxGeometry>
        </mxCell>
        <mxCell id="Mc_kpRLNQTw_WZLSpTaW-168" value="description = models.TextField(default=&quot;&quot;, blank=True)" style="shape=partialRectangle;connectable=0;fillColor=none;top=0;left=0;bottom=0;right=0;align=left;spacingLeft=6;overflow=hidden;fontColor=#000000;" parent="Mc_kpRLNQTw_WZLSpTaW-166" vertex="1">
          <mxGeometry x="20" width="270" height="30" as="geometry">
            <mxRectangle width="270" height="30" as="alternateBounds" />
          </mxGeometry>
        </mxCell>
        <mxCell id="Mc_kpRLNQTw_WZLSpTaW-169" value="" style="shape=tableRow;horizontal=0;startSize=0;swimlaneHead=0;swimlaneBody=0;fillColor=none;collapsible=0;dropTarget=0;points=[[0,0.5],[1,0.5]];portConstraint=eastwest;top=0;left=0;right=0;bottom=0;fontColor=#000000;" parent="Mc_kpRLNQTw_WZLSpTaW-159" vertex="1">
          <mxGeometry y="120" width="290" height="30" as="geometry" />
        </mxCell>
        <mxCell id="Mc_kpRLNQTw_WZLSpTaW-170" value="" style="shape=partialRectangle;connectable=0;fillColor=none;top=0;left=0;bottom=0;right=0;editable=1;overflow=hidden;fontColor=#000000;" parent="Mc_kpRLNQTw_WZLSpTaW-169" vertex="1">
          <mxGeometry width="20" height="30" as="geometry">
            <mxRectangle width="20" height="30" as="alternateBounds" />
          </mxGeometry>
        </mxCell>
        <mxCell id="Mc_kpRLNQTw_WZLSpTaW-171" value="moment_image = models.ImageField(upload_to=&quot;assets/image&quot;, null=True, blank=True)" style="shape=partialRectangle;connectable=0;fillColor=none;top=0;left=0;bottom=0;right=0;align=left;spacingLeft=6;overflow=hidden;fontColor=#000000;" parent="Mc_kpRLNQTw_WZLSpTaW-169" vertex="1">
          <mxGeometry x="20" width="270" height="30" as="geometry">
            <mxRectangle width="270" height="30" as="alternateBounds" />
          </mxGeometry>
        </mxCell>
        <mxCell id="Mc_kpRLNQTw_WZLSpTaW-172" value="" style="shape=tableRow;horizontal=0;startSize=0;swimlaneHead=0;swimlaneBody=0;fillColor=none;collapsible=0;dropTarget=0;points=[[0,0.5],[1,0.5]];portConstraint=eastwest;top=0;left=0;right=0;bottom=0;fontColor=#000000;" parent="Mc_kpRLNQTw_WZLSpTaW-159" vertex="1">
          <mxGeometry y="150" width="290" height="30" as="geometry" />
        </mxCell>
        <mxCell id="Mc_kpRLNQTw_WZLSpTaW-173" value="" style="shape=partialRectangle;connectable=0;fillColor=none;top=0;left=0;bottom=0;right=0;editable=1;overflow=hidden;fontColor=#000000;" parent="Mc_kpRLNQTw_WZLSpTaW-172" vertex="1">
          <mxGeometry width="20" height="30" as="geometry">
            <mxRectangle width="20" height="30" as="alternateBounds" />
          </mxGeometry>
        </mxCell>
        <mxCell id="Mc_kpRLNQTw_WZLSpTaW-174" value="moment_image_url = models.URLField(max_length=5000, null=True, blank=True)" style="shape=partialRectangle;connectable=0;fillColor=none;top=0;left=0;bottom=0;right=0;align=left;spacingLeft=6;overflow=hidden;fontColor=#000000;" parent="Mc_kpRLNQTw_WZLSpTaW-172" vertex="1">
          <mxGeometry x="20" width="270" height="30" as="geometry">
            <mxRectangle width="270" height="30" as="alternateBounds" />
          </mxGeometry>
        </mxCell>
        <mxCell id="Mc_kpRLNQTw_WZLSpTaW-175" value="" style="shape=tableRow;horizontal=0;startSize=0;swimlaneHead=0;swimlaneBody=0;fillColor=none;collapsible=0;dropTarget=0;points=[[0,0.5],[1,0.5]];portConstraint=eastwest;top=0;left=0;right=0;bottom=0;fontColor=#000000;" parent="Mc_kpRLNQTw_WZLSpTaW-159" vertex="1">
          <mxGeometry y="180" width="290" height="30" as="geometry" />
        </mxCell>
        <mxCell id="Mc_kpRLNQTw_WZLSpTaW-176" value="" style="shape=partialRectangle;connectable=0;fillColor=none;top=0;left=0;bottom=0;right=0;editable=1;overflow=hidden;fontColor=#000000;" parent="Mc_kpRLNQTw_WZLSpTaW-175" vertex="1">
          <mxGeometry width="20" height="30" as="geometry">
            <mxRectangle width="20" height="30" as="alternateBounds" />
          </mxGeometry>
        </mxCell>
        <mxCell id="Mc_kpRLNQTw_WZLSpTaW-177" value="tags = TaggableManager()" style="shape=partialRectangle;connectable=0;fillColor=none;top=0;left=0;bottom=0;right=0;align=left;spacingLeft=6;overflow=hidden;fontColor=#000000;" parent="Mc_kpRLNQTw_WZLSpTaW-175" vertex="1">
          <mxGeometry x="20" width="270" height="30" as="geometry">
            <mxRectangle width="270" height="30" as="alternateBounds" />
          </mxGeometry>
        </mxCell>
        <mxCell id="Mc_kpRLNQTw_WZLSpTaW-178" value="" style="shape=tableRow;horizontal=0;startSize=0;swimlaneHead=0;swimlaneBody=0;fillColor=none;collapsible=0;dropTarget=0;points=[[0,0.5],[1,0.5]];portConstraint=eastwest;top=0;left=0;right=0;bottom=0;fontColor=#000000;" parent="Mc_kpRLNQTw_WZLSpTaW-159" vertex="1">
          <mxGeometry y="210" width="290" height="20" as="geometry" />
        </mxCell>
        <mxCell id="Mc_kpRLNQTw_WZLSpTaW-179" value="" style="shape=partialRectangle;connectable=0;fillColor=none;top=0;left=0;bottom=0;right=0;editable=1;overflow=hidden;fontColor=#000000;" parent="Mc_kpRLNQTw_WZLSpTaW-178" vertex="1">
          <mxGeometry width="20" height="20" as="geometry">
            <mxRectangle width="20" height="20" as="alternateBounds" />
          </mxGeometry>
        </mxCell>
        <mxCell id="Mc_kpRLNQTw_WZLSpTaW-180" value="" style="shape=partialRectangle;connectable=0;fillColor=none;top=0;left=0;bottom=0;right=0;align=left;spacingLeft=6;overflow=hidden;fontColor=#000000;" parent="Mc_kpRLNQTw_WZLSpTaW-178" vertex="1">
          <mxGeometry x="20" width="270" height="20" as="geometry">
            <mxRectangle width="270" height="20" as="alternateBounds" />
          </mxGeometry>
        </mxCell>
        <mxCell id="Mc_kpRLNQTw_WZLSpTaW-181" value="ShoppingList" style="shape=table;startSize=30;container=1;collapsible=1;childLayout=tableLayout;fixedRows=1;rowLines=0;fontStyle=1;align=center;resizeLast=1;fontColor=#000000;" parent="1" vertex="1">
          <mxGeometry x="640" y="-650" width="290" height="450" as="geometry">
            <mxRectangle x="501" y="80" width="130" height="30" as="alternateBounds" />
          </mxGeometry>
        </mxCell>
        <mxCell id="Mc_kpRLNQTw_WZLSpTaW-182" value="" style="shape=tableRow;horizontal=0;startSize=0;swimlaneHead=0;swimlaneBody=0;fillColor=none;collapsible=0;dropTarget=0;points=[[0,0.5],[1,0.5]];portConstraint=eastwest;top=0;left=0;right=0;bottom=1;fontColor=#000000;" parent="Mc_kpRLNQTw_WZLSpTaW-181" vertex="1">
          <mxGeometry y="30" width="290" height="30" as="geometry" />
        </mxCell>
        <mxCell id="Mc_kpRLNQTw_WZLSpTaW-183" value="PK" style="shape=partialRectangle;connectable=0;fillColor=none;top=0;left=0;bottom=0;right=0;fontStyle=1;overflow=hidden;fontColor=#000000;" parent="Mc_kpRLNQTw_WZLSpTaW-182" vertex="1">
          <mxGeometry width="20" height="30" as="geometry">
            <mxRectangle width="20" height="30" as="alternateBounds" />
          </mxGeometry>
        </mxCell>
        <mxCell id="Mc_kpRLNQTw_WZLSpTaW-184" value="id = models.BigAutoField(primary_key=True)" style="shape=partialRectangle;connectable=0;fillColor=none;top=0;left=0;bottom=0;right=0;align=left;spacingLeft=6;fontStyle=5;overflow=hidden;fontColor=#000000;" parent="Mc_kpRLNQTw_WZLSpTaW-182" vertex="1">
          <mxGeometry x="20" width="270" height="30" as="geometry">
            <mxRectangle width="270" height="30" as="alternateBounds" />
          </mxGeometry>
        </mxCell>
        <mxCell id="Mc_kpRLNQTw_WZLSpTaW-185" value="" style="shape=tableRow;horizontal=0;startSize=0;swimlaneHead=0;swimlaneBody=0;fillColor=none;collapsible=0;dropTarget=0;points=[[0,0.5],[1,0.5]];portConstraint=eastwest;top=0;left=0;right=0;bottom=0;fontColor=#000000;" parent="Mc_kpRLNQTw_WZLSpTaW-181" vertex="1">
          <mxGeometry y="60" width="290" height="30" as="geometry" />
        </mxCell>
        <mxCell id="Mc_kpRLNQTw_WZLSpTaW-186" value="" style="shape=partialRectangle;connectable=0;fillColor=none;top=0;left=0;bottom=0;right=0;editable=1;overflow=hidden;fontColor=#000000;" parent="Mc_kpRLNQTw_WZLSpTaW-185" vertex="1">
          <mxGeometry width="20" height="30" as="geometry">
            <mxRectangle width="20" height="30" as="alternateBounds" />
          </mxGeometry>
        </mxCell>
        <mxCell id="Mc_kpRLNQTw_WZLSpTaW-187" value="name = models.CharField(max_length=255)" style="shape=partialRectangle;connectable=0;fillColor=none;top=0;left=0;bottom=0;right=0;align=left;spacingLeft=6;overflow=hidden;fontColor=#000000;" parent="Mc_kpRLNQTw_WZLSpTaW-185" vertex="1">
          <mxGeometry x="20" width="270" height="30" as="geometry">
            <mxRectangle width="270" height="30" as="alternateBounds" />
          </mxGeometry>
        </mxCell>
        <mxCell id="Mc_kpRLNQTw_WZLSpTaW-188" value="" style="shape=tableRow;horizontal=0;startSize=0;swimlaneHead=0;swimlaneBody=0;fillColor=none;collapsible=0;dropTarget=0;points=[[0,0.5],[1,0.5]];portConstraint=eastwest;top=0;left=0;right=0;bottom=0;fontColor=#000000;" parent="Mc_kpRLNQTw_WZLSpTaW-181" vertex="1">
          <mxGeometry y="90" width="290" height="30" as="geometry" />
        </mxCell>
        <mxCell id="Mc_kpRLNQTw_WZLSpTaW-189" value="" style="shape=partialRectangle;connectable=0;fillColor=none;top=0;left=0;bottom=0;right=0;editable=1;overflow=hidden;fontColor=#000000;" parent="Mc_kpRLNQTw_WZLSpTaW-188" vertex="1">
          <mxGeometry width="20" height="30" as="geometry">
            <mxRectangle width="20" height="30" as="alternateBounds" />
          </mxGeometry>
        </mxCell>
        <mxCell id="Mc_kpRLNQTw_WZLSpTaW-190" value="description = models.TextField(default=&quot;&quot;, blank=True)" style="shape=partialRectangle;connectable=0;fillColor=none;top=0;left=0;bottom=0;right=0;align=left;spacingLeft=6;overflow=hidden;fontColor=#000000;" parent="Mc_kpRLNQTw_WZLSpTaW-188" vertex="1">
          <mxGeometry x="20" width="270" height="30" as="geometry">
            <mxRectangle width="270" height="30" as="alternateBounds" />
          </mxGeometry>
        </mxCell>
        <mxCell id="Mc_kpRLNQTw_WZLSpTaW-191" value="" style="shape=tableRow;horizontal=0;startSize=0;swimlaneHead=0;swimlaneBody=0;fillColor=none;collapsible=0;dropTarget=0;points=[[0,0.5],[1,0.5]];portConstraint=eastwest;top=0;left=0;right=0;bottom=0;fontColor=#000000;" parent="Mc_kpRLNQTw_WZLSpTaW-181" vertex="1">
          <mxGeometry y="120" width="290" height="30" as="geometry" />
        </mxCell>
        <mxCell id="Mc_kpRLNQTw_WZLSpTaW-192" value="" style="shape=partialRectangle;connectable=0;fillColor=none;top=0;left=0;bottom=0;right=0;editable=1;overflow=hidden;fontColor=#000000;" parent="Mc_kpRLNQTw_WZLSpTaW-191" vertex="1">
          <mxGeometry width="20" height="30" as="geometry">
            <mxRectangle width="20" height="30" as="alternateBounds" />
          </mxGeometry>
        </mxCell>
        <mxCell id="Mc_kpRLNQTw_WZLSpTaW-193" value="state = models.CharField(choices=ShoppingListConstants.SHOPPING_LIST_STATE,max_length=255,default=ShoppingListConstants.SHOPPING_LIST_STATE[0][0],)" style="shape=partialRectangle;connectable=0;fillColor=none;top=0;left=0;bottom=0;right=0;align=left;spacingLeft=6;overflow=hidden;fontColor=#000000;" parent="Mc_kpRLNQTw_WZLSpTaW-191" vertex="1">
          <mxGeometry x="20" width="270" height="30" as="geometry">
            <mxRectangle width="270" height="30" as="alternateBounds" />
          </mxGeometry>
        </mxCell>
        <mxCell id="Mc_kpRLNQTw_WZLSpTaW-194" value="" style="shape=tableRow;horizontal=0;startSize=0;swimlaneHead=0;swimlaneBody=0;fillColor=none;collapsible=0;dropTarget=0;points=[[0,0.5],[1,0.5]];portConstraint=eastwest;top=0;left=0;right=0;bottom=0;fontColor=#000000;" parent="Mc_kpRLNQTw_WZLSpTaW-181" vertex="1">
          <mxGeometry y="150" width="290" height="30" as="geometry" />
        </mxCell>
        <mxCell id="Mc_kpRLNQTw_WZLSpTaW-195" value="" style="shape=partialRectangle;connectable=0;fillColor=none;top=0;left=0;bottom=0;right=0;editable=1;overflow=hidden;fontColor=#000000;" parent="Mc_kpRLNQTw_WZLSpTaW-194" vertex="1">
          <mxGeometry width="20" height="30" as="geometry">
            <mxRectangle width="20" height="30" as="alternateBounds" />
          </mxGeometry>
        </mxCell>
        <mxCell id="Mc_kpRLNQTw_WZLSpTaW-196" value="image = models.ImageField(upload_to=&quot;assets/image&quot;, null=True, blank=True)" style="shape=partialRectangle;connectable=0;fillColor=none;top=0;left=0;bottom=0;right=0;align=left;spacingLeft=6;overflow=hidden;fontColor=#000000;" parent="Mc_kpRLNQTw_WZLSpTaW-194" vertex="1">
          <mxGeometry x="20" width="270" height="30" as="geometry">
            <mxRectangle width="270" height="30" as="alternateBounds" />
          </mxGeometry>
        </mxCell>
        <mxCell id="Mc_kpRLNQTw_WZLSpTaW-197" value="" style="shape=tableRow;horizontal=0;startSize=0;swimlaneHead=0;swimlaneBody=0;fillColor=none;collapsible=0;dropTarget=0;points=[[0,0.5],[1,0.5]];portConstraint=eastwest;top=0;left=0;right=0;bottom=0;fontColor=#000000;" parent="Mc_kpRLNQTw_WZLSpTaW-181" vertex="1">
          <mxGeometry y="180" width="290" height="30" as="geometry" />
        </mxCell>
        <mxCell id="Mc_kpRLNQTw_WZLSpTaW-198" value="" style="shape=partialRectangle;connectable=0;fillColor=none;top=0;left=0;bottom=0;right=0;editable=1;overflow=hidden;fontColor=#000000;" parent="Mc_kpRLNQTw_WZLSpTaW-197" vertex="1">
          <mxGeometry width="20" height="30" as="geometry">
            <mxRectangle width="20" height="30" as="alternateBounds" />
          </mxGeometry>
        </mxCell>
        <mxCell id="Mc_kpRLNQTw_WZLSpTaW-199" value="image_url = models.URLField(max_length=5000, null=True, blank=True)" style="shape=partialRectangle;connectable=0;fillColor=none;top=0;left=0;bottom=0;right=0;align=left;spacingLeft=6;overflow=hidden;fontColor=#000000;" parent="Mc_kpRLNQTw_WZLSpTaW-197" vertex="1">
          <mxGeometry x="20" width="270" height="30" as="geometry">
            <mxRectangle width="270" height="30" as="alternateBounds" />
          </mxGeometry>
        </mxCell>
        <mxCell id="Mc_kpRLNQTw_WZLSpTaW-282" value="" style="shape=tableRow;horizontal=0;startSize=0;swimlaneHead=0;swimlaneBody=0;fillColor=none;collapsible=0;dropTarget=0;points=[[0,0.5],[1,0.5]];portConstraint=eastwest;top=0;left=0;right=0;bottom=0;fontColor=#000000;" parent="Mc_kpRLNQTw_WZLSpTaW-181" vertex="1">
          <mxGeometry y="210" width="290" height="30" as="geometry" />
        </mxCell>
        <mxCell id="Mc_kpRLNQTw_WZLSpTaW-283" value="" style="shape=partialRectangle;connectable=0;fillColor=none;top=0;left=0;bottom=0;right=0;editable=1;overflow=hidden;fontColor=#000000;" parent="Mc_kpRLNQTw_WZLSpTaW-282" vertex="1">
          <mxGeometry width="20" height="30" as="geometry">
            <mxRectangle width="20" height="30" as="alternateBounds" />
          </mxGeometry>
        </mxCell>
        <mxCell id="Mc_kpRLNQTw_WZLSpTaW-284" value="video = models.FileField(null=True, blank=True, upload_to=&quot;assets/video&quot;)" style="shape=partialRectangle;connectable=0;fillColor=none;top=0;left=0;bottom=0;right=0;align=left;spacingLeft=6;overflow=hidden;fontColor=#000000;" parent="Mc_kpRLNQTw_WZLSpTaW-282" vertex="1">
          <mxGeometry x="20" width="270" height="30" as="geometry">
            <mxRectangle width="270" height="30" as="alternateBounds" />
          </mxGeometry>
        </mxCell>
        <mxCell id="Mc_kpRLNQTw_WZLSpTaW-285" value="" style="shape=tableRow;horizontal=0;startSize=0;swimlaneHead=0;swimlaneBody=0;fillColor=none;collapsible=0;dropTarget=0;points=[[0,0.5],[1,0.5]];portConstraint=eastwest;top=0;left=0;right=0;bottom=0;fontColor=#000000;" parent="Mc_kpRLNQTw_WZLSpTaW-181" vertex="1">
          <mxGeometry y="240" width="290" height="30" as="geometry" />
        </mxCell>
        <mxCell id="Mc_kpRLNQTw_WZLSpTaW-286" value="" style="shape=partialRectangle;connectable=0;fillColor=none;top=0;left=0;bottom=0;right=0;editable=1;overflow=hidden;fontColor=#000000;" parent="Mc_kpRLNQTw_WZLSpTaW-285" vertex="1">
          <mxGeometry width="20" height="30" as="geometry">
            <mxRectangle width="20" height="30" as="alternateBounds" />
          </mxGeometry>
        </mxCell>
        <mxCell id="Mc_kpRLNQTw_WZLSpTaW-287" value="video_url = models.URLField(max_length=5000, null=True, blank=True)" style="shape=partialRectangle;connectable=0;fillColor=none;top=0;left=0;bottom=0;right=0;align=left;spacingLeft=6;overflow=hidden;fontColor=#000000;" parent="Mc_kpRLNQTw_WZLSpTaW-285" vertex="1">
          <mxGeometry x="20" width="270" height="30" as="geometry">
            <mxRectangle width="270" height="30" as="alternateBounds" />
          </mxGeometry>
        </mxCell>
        <mxCell id="Mc_kpRLNQTw_WZLSpTaW-288" value="" style="shape=tableRow;horizontal=0;startSize=0;swimlaneHead=0;swimlaneBody=0;fillColor=none;collapsible=0;dropTarget=0;points=[[0,0.5],[1,0.5]];portConstraint=eastwest;top=0;left=0;right=0;bottom=0;fontColor=#000000;" parent="Mc_kpRLNQTw_WZLSpTaW-181" vertex="1">
          <mxGeometry y="270" width="290" height="30" as="geometry" />
        </mxCell>
        <mxCell id="Mc_kpRLNQTw_WZLSpTaW-289" value="" style="shape=partialRectangle;connectable=0;fillColor=none;top=0;left=0;bottom=0;right=0;editable=1;overflow=hidden;fontColor=#000000;" parent="Mc_kpRLNQTw_WZLSpTaW-288" vertex="1">
          <mxGeometry width="20" height="30" as="geometry">
            <mxRectangle width="20" height="30" as="alternateBounds" />
          </mxGeometry>
        </mxCell>
        <mxCell id="Mc_kpRLNQTw_WZLSpTaW-290" value="content = models.TextField(default=&quot;&quot;, blank=True)" style="shape=partialRectangle;connectable=0;fillColor=none;top=0;left=0;bottom=0;right=0;align=left;spacingLeft=6;overflow=hidden;fontColor=#000000;" parent="Mc_kpRLNQTw_WZLSpTaW-288" vertex="1">
          <mxGeometry x="20" width="270" height="30" as="geometry">
            <mxRectangle width="270" height="30" as="alternateBounds" />
          </mxGeometry>
        </mxCell>
        <mxCell id="Mc_kpRLNQTw_WZLSpTaW-291" value="" style="shape=tableRow;horizontal=0;startSize=0;swimlaneHead=0;swimlaneBody=0;fillColor=none;collapsible=0;dropTarget=0;points=[[0,0.5],[1,0.5]];portConstraint=eastwest;top=0;left=0;right=0;bottom=0;fontColor=#000000;" parent="Mc_kpRLNQTw_WZLSpTaW-181" vertex="1">
          <mxGeometry y="300" width="290" height="30" as="geometry" />
        </mxCell>
        <mxCell id="Mc_kpRLNQTw_WZLSpTaW-292" value="" style="shape=partialRectangle;connectable=0;fillColor=none;top=0;left=0;bottom=0;right=0;editable=1;overflow=hidden;fontColor=#000000;" parent="Mc_kpRLNQTw_WZLSpTaW-291" vertex="1">
          <mxGeometry width="20" height="30" as="geometry">
            <mxRectangle width="20" height="30" as="alternateBounds" />
          </mxGeometry>
        </mxCell>
        <mxCell id="Mc_kpRLNQTw_WZLSpTaW-293" value="upvote = models.IntegerField(default=0, blank=True)" style="shape=partialRectangle;connectable=0;fillColor=none;top=0;left=0;bottom=0;right=0;align=left;spacingLeft=6;overflow=hidden;fontColor=#000000;" parent="Mc_kpRLNQTw_WZLSpTaW-291" vertex="1">
          <mxGeometry x="20" width="270" height="30" as="geometry">
            <mxRectangle width="270" height="30" as="alternateBounds" />
          </mxGeometry>
        </mxCell>
        <mxCell id="Mc_kpRLNQTw_WZLSpTaW-294" value="" style="shape=tableRow;horizontal=0;startSize=0;swimlaneHead=0;swimlaneBody=0;fillColor=none;collapsible=0;dropTarget=0;points=[[0,0.5],[1,0.5]];portConstraint=eastwest;top=0;left=0;right=0;bottom=0;fontColor=#000000;" parent="Mc_kpRLNQTw_WZLSpTaW-181" vertex="1">
          <mxGeometry y="330" width="290" height="30" as="geometry" />
        </mxCell>
        <mxCell id="Mc_kpRLNQTw_WZLSpTaW-295" value="" style="shape=partialRectangle;connectable=0;fillColor=none;top=0;left=0;bottom=0;right=0;editable=1;overflow=hidden;fontColor=#000000;" parent="Mc_kpRLNQTw_WZLSpTaW-294" vertex="1">
          <mxGeometry width="20" height="30" as="geometry">
            <mxRectangle width="20" height="30" as="alternateBounds" />
          </mxGeometry>
        </mxCell>
        <mxCell id="Mc_kpRLNQTw_WZLSpTaW-296" value=" moment = models.ForeignKey(Moment,on_delete=models.CASCADE,related_name=&quot;shopping_list&quot;,related_query_name=&quot;shopping_list&quot;,null=True,blank=True,)" style="shape=partialRectangle;connectable=0;fillColor=none;top=0;left=0;bottom=0;right=0;align=left;spacingLeft=6;overflow=hidden;fontColor=#000000;" parent="Mc_kpRLNQTw_WZLSpTaW-294" vertex="1">
          <mxGeometry x="20" width="270" height="30" as="geometry">
            <mxRectangle width="270" height="30" as="alternateBounds" />
          </mxGeometry>
        </mxCell>
        <mxCell id="Mc_kpRLNQTw_WZLSpTaW-297" value="" style="shape=tableRow;horizontal=0;startSize=0;swimlaneHead=0;swimlaneBody=0;fillColor=none;collapsible=0;dropTarget=0;points=[[0,0.5],[1,0.5]];portConstraint=eastwest;top=0;left=0;right=0;bottom=0;fontColor=#000000;" parent="Mc_kpRLNQTw_WZLSpTaW-181" vertex="1">
          <mxGeometry y="360" width="290" height="30" as="geometry" />
        </mxCell>
        <mxCell id="Mc_kpRLNQTw_WZLSpTaW-298" value="" style="shape=partialRectangle;connectable=0;fillColor=none;top=0;left=0;bottom=0;right=0;editable=1;overflow=hidden;fontColor=#000000;" parent="Mc_kpRLNQTw_WZLSpTaW-297" vertex="1">
          <mxGeometry width="20" height="30" as="geometry">
            <mxRectangle width="20" height="30" as="alternateBounds" />
          </mxGeometry>
        </mxCell>
        <mxCell id="Mc_kpRLNQTw_WZLSpTaW-299" value="user = models.ForeignKey(ShopifyUser,on_delete=models.CASCADE,related_name=&quot;shopping_list&quot;,related_query_name=&quot;shopping_list&quot;,blank=True,)" style="shape=partialRectangle;connectable=0;fillColor=none;top=0;left=0;bottom=0;right=0;align=left;spacingLeft=6;overflow=hidden;fontColor=#000000;" parent="Mc_kpRLNQTw_WZLSpTaW-297" vertex="1">
          <mxGeometry x="20" width="270" height="30" as="geometry">
            <mxRectangle width="270" height="30" as="alternateBounds" />
          </mxGeometry>
        </mxCell>
        <mxCell id="Mc_kpRLNQTw_WZLSpTaW-374" value="" style="shape=tableRow;horizontal=0;startSize=0;swimlaneHead=0;swimlaneBody=0;fillColor=none;collapsible=0;dropTarget=0;points=[[0,0.5],[1,0.5]];portConstraint=eastwest;top=0;left=0;right=0;bottom=0;fontColor=#000000;" parent="Mc_kpRLNQTw_WZLSpTaW-181" vertex="1">
          <mxGeometry y="390" width="290" height="30" as="geometry" />
        </mxCell>
        <mxCell id="Mc_kpRLNQTw_WZLSpTaW-375" value="" style="shape=partialRectangle;connectable=0;fillColor=none;top=0;left=0;bottom=0;right=0;editable=1;overflow=hidden;fontColor=#000000;" parent="Mc_kpRLNQTw_WZLSpTaW-374" vertex="1">
          <mxGeometry width="20" height="30" as="geometry">
            <mxRectangle width="20" height="30" as="alternateBounds" />
          </mxGeometry>
        </mxCell>
        <mxCell id="Mc_kpRLNQTw_WZLSpTaW-376" value="tags = TaggableManager()" style="shape=partialRectangle;connectable=0;fillColor=none;top=0;left=0;bottom=0;right=0;align=left;spacingLeft=6;overflow=hidden;fontColor=#000000;" parent="Mc_kpRLNQTw_WZLSpTaW-374" vertex="1">
          <mxGeometry x="20" width="270" height="30" as="geometry">
            <mxRectangle width="270" height="30" as="alternateBounds" />
          </mxGeometry>
        </mxCell>
        <mxCell id="Mc_kpRLNQTw_WZLSpTaW-377" value="" style="shape=tableRow;horizontal=0;startSize=0;swimlaneHead=0;swimlaneBody=0;fillColor=none;collapsible=0;dropTarget=0;points=[[0,0.5],[1,0.5]];portConstraint=eastwest;top=0;left=0;right=0;bottom=0;fontColor=#000000;" parent="Mc_kpRLNQTw_WZLSpTaW-181" vertex="1">
          <mxGeometry y="420" width="290" height="30" as="geometry" />
        </mxCell>
        <mxCell id="Mc_kpRLNQTw_WZLSpTaW-378" value="" style="shape=partialRectangle;connectable=0;fillColor=none;top=0;left=0;bottom=0;right=0;editable=1;overflow=hidden;fontColor=#000000;" parent="Mc_kpRLNQTw_WZLSpTaW-377" vertex="1">
          <mxGeometry width="20" height="30" as="geometry">
            <mxRectangle width="20" height="30" as="alternateBounds" />
          </mxGeometry>
        </mxCell>
        <mxCell id="Mc_kpRLNQTw_WZLSpTaW-379" value="created_at = models.DateTimeField(auto_now_add=True, blank=True, null=True)" style="shape=partialRectangle;connectable=0;fillColor=none;top=0;left=0;bottom=0;right=0;align=left;spacingLeft=6;overflow=hidden;fontColor=#000000;" parent="Mc_kpRLNQTw_WZLSpTaW-377" vertex="1">
          <mxGeometry x="20" width="270" height="30" as="geometry">
            <mxRectangle width="270" height="30" as="alternateBounds" />
          </mxGeometry>
        </mxCell>
        <mxCell id="Mc_kpRLNQTw_WZLSpTaW-203" value="ShopifyWishList" style="shape=table;startSize=30;container=1;collapsible=1;childLayout=tableLayout;fixedRows=1;rowLines=0;fontStyle=1;align=center;resizeLast=1;fontColor=#000000;" parent="1" vertex="1">
          <mxGeometry x="-827" y="-390" width="290" height="90" as="geometry">
            <mxRectangle x="501" y="80" width="130" height="30" as="alternateBounds" />
          </mxGeometry>
        </mxCell>
        <mxCell id="Mc_kpRLNQTw_WZLSpTaW-207" value="" style="shape=tableRow;horizontal=0;startSize=0;swimlaneHead=0;swimlaneBody=0;fillColor=none;collapsible=0;dropTarget=0;points=[[0,0.5],[1,0.5]];portConstraint=eastwest;top=0;left=0;right=0;bottom=0;fontColor=#000000;" parent="Mc_kpRLNQTw_WZLSpTaW-203" vertex="1">
          <mxGeometry y="30" width="290" height="30" as="geometry" />
        </mxCell>
        <mxCell id="Mc_kpRLNQTw_WZLSpTaW-208" value="" style="shape=partialRectangle;connectable=0;fillColor=none;top=0;left=0;bottom=0;right=0;editable=1;overflow=hidden;fontColor=#000000;" parent="Mc_kpRLNQTw_WZLSpTaW-207" vertex="1">
          <mxGeometry width="20" height="30" as="geometry">
            <mxRectangle width="20" height="30" as="alternateBounds" />
          </mxGeometry>
        </mxCell>
        <mxCell id="Mc_kpRLNQTw_WZLSpTaW-209" value="wishlist_id = models.BigAutoField(primary_key=True)" style="shape=partialRectangle;connectable=0;fillColor=none;top=0;left=0;bottom=0;right=0;align=left;spacingLeft=6;overflow=hidden;fontColor=#000000;" parent="Mc_kpRLNQTw_WZLSpTaW-207" vertex="1">
          <mxGeometry x="20" width="270" height="30" as="geometry">
            <mxRectangle width="270" height="30" as="alternateBounds" />
          </mxGeometry>
        </mxCell>
        <mxCell id="Mc_kpRLNQTw_WZLSpTaW-210" value="" style="shape=tableRow;horizontal=0;startSize=0;swimlaneHead=0;swimlaneBody=0;fillColor=none;collapsible=0;dropTarget=0;points=[[0,0.5],[1,0.5]];portConstraint=eastwest;top=0;left=0;right=0;bottom=0;fontColor=#000000;" parent="Mc_kpRLNQTw_WZLSpTaW-203" vertex="1">
          <mxGeometry y="60" width="290" height="30" as="geometry" />
        </mxCell>
        <mxCell id="Mc_kpRLNQTw_WZLSpTaW-211" value="" style="shape=partialRectangle;connectable=0;fillColor=none;top=0;left=0;bottom=0;right=0;editable=1;overflow=hidden;fontColor=#000000;" parent="Mc_kpRLNQTw_WZLSpTaW-210" vertex="1">
          <mxGeometry width="20" height="30" as="geometry">
            <mxRectangle width="20" height="30" as="alternateBounds" />
          </mxGeometry>
        </mxCell>
        <mxCell id="Mc_kpRLNQTw_WZLSpTaW-212" value="user_uuid = models.CharField(max_length=2000, unique=True)" style="shape=partialRectangle;connectable=0;fillColor=none;top=0;left=0;bottom=0;right=0;align=left;spacingLeft=6;overflow=hidden;fontColor=#000000;" parent="Mc_kpRLNQTw_WZLSpTaW-210" vertex="1">
          <mxGeometry x="20" width="270" height="30" as="geometry">
            <mxRectangle width="270" height="30" as="alternateBounds" />
          </mxGeometry>
        </mxCell>
        <mxCell id="Mc_kpRLNQTw_WZLSpTaW-225" value="&lt;div style=&quot;background-color: rgb(30, 30, 30); font-family: &amp;quot;Droid Sans Mono&amp;quot;, &amp;quot;monospace&amp;quot;, monospace; font-weight: normal; font-size: 14px; line-height: 19px;&quot;&gt;&lt;div style=&quot;&quot;&gt;&lt;br&gt;&lt;/div&gt;&lt;/div&gt;" style="text;whiteSpace=wrap;html=1;fontColor=#000000;" parent="1" vertex="1">
          <mxGeometry x="-500" y="-750" width="510" height="70" as="geometry" />
        </mxCell>
        <mxCell id="Mc_kpRLNQTw_WZLSpTaW-226" value="ShopifyWishListItems" style="shape=table;startSize=30;container=1;collapsible=1;childLayout=tableLayout;fixedRows=1;rowLines=0;fontStyle=1;align=center;resizeLast=1;fontColor=#000000;" parent="1" vertex="1">
          <mxGeometry x="-440" y="-390" width="290" height="120" as="geometry">
            <mxRectangle x="501" y="80" width="130" height="30" as="alternateBounds" />
          </mxGeometry>
        </mxCell>
        <mxCell id="Mc_kpRLNQTw_WZLSpTaW-227" value="" style="shape=tableRow;horizontal=0;startSize=0;swimlaneHead=0;swimlaneBody=0;fillColor=none;collapsible=0;dropTarget=0;points=[[0,0.5],[1,0.5]];portConstraint=eastwest;top=0;left=0;right=0;bottom=1;fontColor=#000000;" parent="Mc_kpRLNQTw_WZLSpTaW-226" vertex="1">
          <mxGeometry y="30" width="290" height="30" as="geometry" />
        </mxCell>
        <mxCell id="Mc_kpRLNQTw_WZLSpTaW-228" value="PK" style="shape=partialRectangle;connectable=0;fillColor=none;top=0;left=0;bottom=0;right=0;fontStyle=1;overflow=hidden;fontColor=#000000;" parent="Mc_kpRLNQTw_WZLSpTaW-227" vertex="1">
          <mxGeometry width="20" height="30" as="geometry">
            <mxRectangle width="20" height="30" as="alternateBounds" />
          </mxGeometry>
        </mxCell>
        <mxCell id="Mc_kpRLNQTw_WZLSpTaW-229" value="item_id = models.BigAutoField(primary_key=True)" style="shape=partialRectangle;connectable=0;fillColor=none;top=0;left=0;bottom=0;right=0;align=left;spacingLeft=6;fontStyle=5;overflow=hidden;fontColor=#000000;" parent="Mc_kpRLNQTw_WZLSpTaW-227" vertex="1">
          <mxGeometry x="20" width="270" height="30" as="geometry">
            <mxRectangle width="270" height="30" as="alternateBounds" />
          </mxGeometry>
        </mxCell>
        <mxCell id="Mc_kpRLNQTw_WZLSpTaW-230" value="" style="shape=tableRow;horizontal=0;startSize=0;swimlaneHead=0;swimlaneBody=0;fillColor=none;collapsible=0;dropTarget=0;points=[[0,0.5],[1,0.5]];portConstraint=eastwest;top=0;left=0;right=0;bottom=0;fontColor=#000000;" parent="Mc_kpRLNQTw_WZLSpTaW-226" vertex="1">
          <mxGeometry y="60" width="290" height="30" as="geometry" />
        </mxCell>
        <mxCell id="Mc_kpRLNQTw_WZLSpTaW-231" value="" style="shape=partialRectangle;connectable=0;fillColor=none;top=0;left=0;bottom=0;right=0;editable=1;overflow=hidden;fontColor=#000000;" parent="Mc_kpRLNQTw_WZLSpTaW-230" vertex="1">
          <mxGeometry width="20" height="30" as="geometry">
            <mxRectangle width="20" height="30" as="alternateBounds" />
          </mxGeometry>
        </mxCell>
        <mxCell id="Mc_kpRLNQTw_WZLSpTaW-232" value="shopify_product = models.ForeignKey(ShopifyProduct,on_delete=models.RESTRICT,related_name=&quot;shopify_wishlist_product&quot;,related_query_name=&quot;shopify_wishlist_product&quot;,null=True,)" style="shape=partialRectangle;connectable=0;fillColor=none;top=0;left=0;bottom=0;right=0;align=left;spacingLeft=6;overflow=hidden;fontColor=#000000;" parent="Mc_kpRLNQTw_WZLSpTaW-230" vertex="1">
          <mxGeometry x="20" width="270" height="30" as="geometry">
            <mxRectangle width="270" height="30" as="alternateBounds" />
          </mxGeometry>
        </mxCell>
        <mxCell id="Mc_kpRLNQTw_WZLSpTaW-233" value="" style="shape=tableRow;horizontal=0;startSize=0;swimlaneHead=0;swimlaneBody=0;fillColor=none;collapsible=0;dropTarget=0;points=[[0,0.5],[1,0.5]];portConstraint=eastwest;top=0;left=0;right=0;bottom=0;fontColor=#000000;" parent="Mc_kpRLNQTw_WZLSpTaW-226" vertex="1">
          <mxGeometry y="90" width="290" height="30" as="geometry" />
        </mxCell>
        <mxCell id="Mc_kpRLNQTw_WZLSpTaW-234" value="" style="shape=partialRectangle;connectable=0;fillColor=none;top=0;left=0;bottom=0;right=0;editable=1;overflow=hidden;fontColor=#000000;" parent="Mc_kpRLNQTw_WZLSpTaW-233" vertex="1">
          <mxGeometry width="20" height="30" as="geometry">
            <mxRectangle width="20" height="30" as="alternateBounds" />
          </mxGeometry>
        </mxCell>
        <mxCell id="Mc_kpRLNQTw_WZLSpTaW-235" value="wishlist = models.ForeignKey(ShopifyWishList,on_delete=models.CASCADE,related_name=&quot;shopify_wishlist&quot;,related_query_name=&quot;shopify_wishlist&quot;,)" style="shape=partialRectangle;connectable=0;fillColor=none;top=0;left=0;bottom=0;right=0;align=left;spacingLeft=6;overflow=hidden;fontColor=#000000;" parent="Mc_kpRLNQTw_WZLSpTaW-233" vertex="1">
          <mxGeometry x="20" width="270" height="30" as="geometry">
            <mxRectangle width="270" height="30" as="alternateBounds" />
          </mxGeometry>
        </mxCell>
        <mxCell id="Mc_kpRLNQTw_WZLSpTaW-250" value="" style="fontSize=12;html=1;endArrow=ERmandOne;startArrow=ERmandOne;rounded=0;fontColor=#000000;exitX=-0.018;exitY=0.325;exitDx=0;exitDy=0;exitPerimeter=0;" parent="1" source="Mc_kpRLNQTw_WZLSpTaW-39" edge="1">
          <mxGeometry width="100" height="100" relative="1" as="geometry">
            <mxPoint x="-270" y="60" as="sourcePoint" />
            <mxPoint x="-820" y="-310" as="targetPoint" />
            <Array as="points">
              <mxPoint x="-100" y="140" />
              <mxPoint x="-100" />
              <mxPoint x="-100" y="-200" />
              <mxPoint x="-850" y="-200" />
              <mxPoint x="-850" y="-260" />
              <mxPoint x="-850" y="-310" />
            </Array>
          </mxGeometry>
        </mxCell>
        <mxCell id="Mc_kpRLNQTw_WZLSpTaW-258" value="" style="fontSize=12;html=1;endArrow=ERmandOne;startArrow=ERoneToMany;rounded=0;fontColor=#000000;startFill=0;" parent="1" edge="1">
          <mxGeometry width="100" height="100" relative="1" as="geometry">
            <mxPoint x="-440" y="-280" as="sourcePoint" />
            <mxPoint x="-830" y="-370" as="targetPoint" />
            <Array as="points">
              <mxPoint x="-470" y="-280" />
              <mxPoint x="-470" y="-240" />
              <mxPoint x="-870" y="-240" />
              <mxPoint x="-870" y="-370" />
            </Array>
          </mxGeometry>
        </mxCell>
        <mxCell id="Mc_kpRLNQTw_WZLSpTaW-259" value="" style="fontSize=12;html=1;endArrow=classic;rounded=0;fontColor=#000000;endFill=1;exitX=0;exitY=0.5;exitDx=0;exitDy=0;" parent="1" source="Mc_kpRLNQTw_WZLSpTaW-230" edge="1">
          <mxGeometry width="100" height="100" relative="1" as="geometry">
            <mxPoint x="-490" y="-330" as="sourcePoint" />
            <mxPoint x="-610" y="20" as="targetPoint" />
            <Array as="points">
              <mxPoint x="-490" y="-315" />
              <mxPoint x="-490" y="-260" />
              <mxPoint x="-610" y="-260" />
            </Array>
          </mxGeometry>
        </mxCell>
        <mxCell id="Mc_kpRLNQTw_WZLSpTaW-380" value="" style="fontSize=12;html=1;endArrow=ERoneToMany;rounded=0;fontColor=#000000;" parent="1" edge="1">
          <mxGeometry width="100" height="100" relative="1" as="geometry">
            <mxPoint x="100" y="-620" as="sourcePoint" />
            <mxPoint x="640" y="-300" as="targetPoint" />
            <Array as="points">
              <mxPoint x="40" y="-620" />
              <mxPoint x="40" y="-300" />
            </Array>
          </mxGeometry>
        </mxCell>
        <mxCell id="Mc_kpRLNQTw_WZLSpTaW-381" value="" style="fontSize=12;html=1;endArrow=ERoneToMany;rounded=0;fontColor=#000000;entryX=0;entryY=0.5;entryDx=0;entryDy=0;exitX=-0.014;exitY=0.079;exitDx=0;exitDy=0;exitPerimeter=0;" parent="1" source="Mc_kpRLNQTw_WZLSpTaW-38" target="Mc_kpRLNQTw_WZLSpTaW-297" edge="1">
          <mxGeometry width="100" height="100" relative="1" as="geometry">
            <mxPoint x="-20" y="-275" as="sourcePoint" />
            <mxPoint x="570" y="-390" as="targetPoint" />
            <Array as="points">
              <mxPoint x="-50" y="83" />
              <mxPoint x="-50" y="-270" />
            </Array>
          </mxGeometry>
        </mxCell>
        <mxCell id="Mc_kpRLNQTw_WZLSpTaW-383" value="TrendingBrands" style="shape=table;startSize=30;container=1;collapsible=1;childLayout=tableLayout;fixedRows=1;rowLines=0;fontStyle=1;align=center;resizeLast=1;fontColor=#000000;" parent="1" vertex="1">
          <mxGeometry x="1300" y="-120" width="290" height="450" as="geometry">
            <mxRectangle x="501" y="80" width="130" height="30" as="alternateBounds" />
          </mxGeometry>
        </mxCell>
        <mxCell id="Mc_kpRLNQTw_WZLSpTaW-384" value="" style="shape=tableRow;horizontal=0;startSize=0;swimlaneHead=0;swimlaneBody=0;fillColor=none;collapsible=0;dropTarget=0;points=[[0,0.5],[1,0.5]];portConstraint=eastwest;top=0;left=0;right=0;bottom=1;fontColor=#000000;" parent="Mc_kpRLNQTw_WZLSpTaW-383" vertex="1">
          <mxGeometry y="30" width="290" height="30" as="geometry" />
        </mxCell>
        <mxCell id="Mc_kpRLNQTw_WZLSpTaW-385" value="PK" style="shape=partialRectangle;connectable=0;fillColor=none;top=0;left=0;bottom=0;right=0;fontStyle=1;overflow=hidden;fontColor=#000000;" parent="Mc_kpRLNQTw_WZLSpTaW-384" vertex="1">
          <mxGeometry width="20" height="30" as="geometry">
            <mxRectangle width="20" height="30" as="alternateBounds" />
          </mxGeometry>
        </mxCell>
        <mxCell id="Mc_kpRLNQTw_WZLSpTaW-386" value="id = models.BigAutoField(primary_key=True)" style="shape=partialRectangle;connectable=0;fillColor=none;top=0;left=0;bottom=0;right=0;align=left;spacingLeft=6;fontStyle=5;overflow=hidden;fontColor=#000000;" parent="Mc_kpRLNQTw_WZLSpTaW-384" vertex="1">
          <mxGeometry x="20" width="270" height="30" as="geometry">
            <mxRectangle width="270" height="30" as="alternateBounds" />
          </mxGeometry>
        </mxCell>
        <mxCell id="Mc_kpRLNQTw_WZLSpTaW-387" value="" style="shape=tableRow;horizontal=0;startSize=0;swimlaneHead=0;swimlaneBody=0;fillColor=none;collapsible=0;dropTarget=0;points=[[0,0.5],[1,0.5]];portConstraint=eastwest;top=0;left=0;right=0;bottom=0;fontColor=#000000;" parent="Mc_kpRLNQTw_WZLSpTaW-383" vertex="1">
          <mxGeometry y="60" width="290" height="30" as="geometry" />
        </mxCell>
        <mxCell id="Mc_kpRLNQTw_WZLSpTaW-388" value="" style="shape=partialRectangle;connectable=0;fillColor=none;top=0;left=0;bottom=0;right=0;editable=1;overflow=hidden;fontColor=#000000;" parent="Mc_kpRLNQTw_WZLSpTaW-387" vertex="1">
          <mxGeometry width="20" height="30" as="geometry">
            <mxRectangle width="20" height="30" as="alternateBounds" />
          </mxGeometry>
        </mxCell>
        <mxCell id="Mc_kpRLNQTw_WZLSpTaW-389" value="name = models.CharField(max_length=255)" style="shape=partialRectangle;connectable=0;fillColor=none;top=0;left=0;bottom=0;right=0;align=left;spacingLeft=6;overflow=hidden;fontColor=#000000;" parent="Mc_kpRLNQTw_WZLSpTaW-387" vertex="1">
          <mxGeometry x="20" width="270" height="30" as="geometry">
            <mxRectangle width="270" height="30" as="alternateBounds" />
          </mxGeometry>
        </mxCell>
        <mxCell id="Mc_kpRLNQTw_WZLSpTaW-390" value="" style="shape=tableRow;horizontal=0;startSize=0;swimlaneHead=0;swimlaneBody=0;fillColor=none;collapsible=0;dropTarget=0;points=[[0,0.5],[1,0.5]];portConstraint=eastwest;top=0;left=0;right=0;bottom=0;fontColor=#000000;" parent="Mc_kpRLNQTw_WZLSpTaW-383" vertex="1">
          <mxGeometry y="90" width="290" height="30" as="geometry" />
        </mxCell>
        <mxCell id="Mc_kpRLNQTw_WZLSpTaW-391" value="" style="shape=partialRectangle;connectable=0;fillColor=none;top=0;left=0;bottom=0;right=0;editable=1;overflow=hidden;fontColor=#000000;" parent="Mc_kpRLNQTw_WZLSpTaW-390" vertex="1">
          <mxGeometry width="20" height="30" as="geometry">
            <mxRectangle width="20" height="30" as="alternateBounds" />
          </mxGeometry>
        </mxCell>
        <mxCell id="Mc_kpRLNQTw_WZLSpTaW-392" value="vendor = models.CharField(max_length=50)" style="shape=partialRectangle;connectable=0;fillColor=none;top=0;left=0;bottom=0;right=0;align=left;spacingLeft=6;overflow=hidden;fontColor=#000000;" parent="Mc_kpRLNQTw_WZLSpTaW-390" vertex="1">
          <mxGeometry x="20" width="270" height="30" as="geometry">
            <mxRectangle width="270" height="30" as="alternateBounds" />
          </mxGeometry>
        </mxCell>
        <mxCell id="Mc_kpRLNQTw_WZLSpTaW-393" value="" style="shape=tableRow;horizontal=0;startSize=0;swimlaneHead=0;swimlaneBody=0;fillColor=none;collapsible=0;dropTarget=0;points=[[0,0.5],[1,0.5]];portConstraint=eastwest;top=0;left=0;right=0;bottom=0;fontColor=#000000;" parent="Mc_kpRLNQTw_WZLSpTaW-383" vertex="1">
          <mxGeometry y="120" width="290" height="30" as="geometry" />
        </mxCell>
        <mxCell id="Mc_kpRLNQTw_WZLSpTaW-394" value="" style="shape=partialRectangle;connectable=0;fillColor=none;top=0;left=0;bottom=0;right=0;editable=1;overflow=hidden;fontColor=#000000;" parent="Mc_kpRLNQTw_WZLSpTaW-393" vertex="1">
          <mxGeometry width="20" height="30" as="geometry">
            <mxRectangle width="20" height="30" as="alternateBounds" />
          </mxGeometry>
        </mxCell>
        <mxCell id="Mc_kpRLNQTw_WZLSpTaW-395" value="brand_link = models.URLField(max_length=5000)" style="shape=partialRectangle;connectable=0;fillColor=none;top=0;left=0;bottom=0;right=0;align=left;spacingLeft=6;overflow=hidden;fontColor=#000000;" parent="Mc_kpRLNQTw_WZLSpTaW-393" vertex="1">
          <mxGeometry x="20" width="270" height="30" as="geometry">
            <mxRectangle width="270" height="30" as="alternateBounds" />
          </mxGeometry>
        </mxCell>
        <mxCell id="Mc_kpRLNQTw_WZLSpTaW-396" value="" style="shape=tableRow;horizontal=0;startSize=0;swimlaneHead=0;swimlaneBody=0;fillColor=none;collapsible=0;dropTarget=0;points=[[0,0.5],[1,0.5]];portConstraint=eastwest;top=0;left=0;right=0;bottom=0;fontColor=#000000;" parent="Mc_kpRLNQTw_WZLSpTaW-383" vertex="1">
          <mxGeometry y="150" width="290" height="30" as="geometry" />
        </mxCell>
        <mxCell id="Mc_kpRLNQTw_WZLSpTaW-397" value="" style="shape=partialRectangle;connectable=0;fillColor=none;top=0;left=0;bottom=0;right=0;editable=1;overflow=hidden;fontColor=#000000;" parent="Mc_kpRLNQTw_WZLSpTaW-396" vertex="1">
          <mxGeometry width="20" height="30" as="geometry">
            <mxRectangle width="20" height="30" as="alternateBounds" />
          </mxGeometry>
        </mxCell>
        <mxCell id="Mc_kpRLNQTw_WZLSpTaW-398" value="display_url = models.URLField(max_length=5000, null=True, blank=True)" style="shape=partialRectangle;connectable=0;fillColor=none;top=0;left=0;bottom=0;right=0;align=left;spacingLeft=6;overflow=hidden;fontColor=#000000;" parent="Mc_kpRLNQTw_WZLSpTaW-396" vertex="1">
          <mxGeometry x="20" width="270" height="30" as="geometry">
            <mxRectangle width="270" height="30" as="alternateBounds" />
          </mxGeometry>
        </mxCell>
        <mxCell id="Mc_kpRLNQTw_WZLSpTaW-399" value="" style="shape=tableRow;horizontal=0;startSize=0;swimlaneHead=0;swimlaneBody=0;fillColor=none;collapsible=0;dropTarget=0;points=[[0,0.5],[1,0.5]];portConstraint=eastwest;top=0;left=0;right=0;bottom=0;fontColor=#000000;" parent="Mc_kpRLNQTw_WZLSpTaW-383" vertex="1">
          <mxGeometry y="180" width="290" height="30" as="geometry" />
        </mxCell>
        <mxCell id="Mc_kpRLNQTw_WZLSpTaW-400" value="" style="shape=partialRectangle;connectable=0;fillColor=none;top=0;left=0;bottom=0;right=0;editable=1;overflow=hidden;fontColor=#000000;" parent="Mc_kpRLNQTw_WZLSpTaW-399" vertex="1">
          <mxGeometry width="20" height="30" as="geometry">
            <mxRectangle width="20" height="30" as="alternateBounds" />
          </mxGeometry>
        </mxCell>
        <mxCell id="Mc_kpRLNQTw_WZLSpTaW-401" value="caption = models.CharField(max_length=5000, null=True, blank=True)" style="shape=partialRectangle;connectable=0;fillColor=none;top=0;left=0;bottom=0;right=0;align=left;spacingLeft=6;overflow=hidden;fontColor=#000000;" parent="Mc_kpRLNQTw_WZLSpTaW-399" vertex="1">
          <mxGeometry x="20" width="270" height="30" as="geometry">
            <mxRectangle width="270" height="30" as="alternateBounds" />
          </mxGeometry>
        </mxCell>
        <mxCell id="Mc_kpRLNQTw_WZLSpTaW-402" value="" style="shape=tableRow;horizontal=0;startSize=0;swimlaneHead=0;swimlaneBody=0;fillColor=none;collapsible=0;dropTarget=0;points=[[0,0.5],[1,0.5]];portConstraint=eastwest;top=0;left=0;right=0;bottom=0;fontColor=#000000;" parent="Mc_kpRLNQTw_WZLSpTaW-383" vertex="1">
          <mxGeometry y="210" width="290" height="30" as="geometry" />
        </mxCell>
        <mxCell id="Mc_kpRLNQTw_WZLSpTaW-403" value="" style="shape=partialRectangle;connectable=0;fillColor=none;top=0;left=0;bottom=0;right=0;editable=1;overflow=hidden;fontColor=#000000;" parent="Mc_kpRLNQTw_WZLSpTaW-402" vertex="1">
          <mxGeometry width="20" height="30" as="geometry">
            <mxRectangle width="20" height="30" as="alternateBounds" />
          </mxGeometry>
        </mxCell>
        <mxCell id="Mc_kpRLNQTw_WZLSpTaW-404" value="is_video = models.BooleanField(default=False, blank=True)" style="shape=partialRectangle;connectable=0;fillColor=none;top=0;left=0;bottom=0;right=0;align=left;spacingLeft=6;overflow=hidden;fontColor=#000000;" parent="Mc_kpRLNQTw_WZLSpTaW-402" vertex="1">
          <mxGeometry x="20" width="270" height="30" as="geometry">
            <mxRectangle width="270" height="30" as="alternateBounds" />
          </mxGeometry>
        </mxCell>
        <mxCell id="Mc_kpRLNQTw_WZLSpTaW-405" value="" style="shape=tableRow;horizontal=0;startSize=0;swimlaneHead=0;swimlaneBody=0;fillColor=none;collapsible=0;dropTarget=0;points=[[0,0.5],[1,0.5]];portConstraint=eastwest;top=0;left=0;right=0;bottom=0;fontColor=#000000;" parent="Mc_kpRLNQTw_WZLSpTaW-383" vertex="1">
          <mxGeometry y="240" width="290" height="30" as="geometry" />
        </mxCell>
        <mxCell id="Mc_kpRLNQTw_WZLSpTaW-406" value="" style="shape=partialRectangle;connectable=0;fillColor=none;top=0;left=0;bottom=0;right=0;editable=1;overflow=hidden;fontColor=#000000;" parent="Mc_kpRLNQTw_WZLSpTaW-405" vertex="1">
          <mxGeometry width="20" height="30" as="geometry">
            <mxRectangle width="20" height="30" as="alternateBounds" />
          </mxGeometry>
        </mxCell>
        <mxCell id="Mc_kpRLNQTw_WZLSpTaW-407" value="comments_count = models.IntegerField(null=True, blank=True)" style="shape=partialRectangle;connectable=0;fillColor=none;top=0;left=0;bottom=0;right=0;align=left;spacingLeft=6;overflow=hidden;fontColor=#000000;" parent="Mc_kpRLNQTw_WZLSpTaW-405" vertex="1">
          <mxGeometry x="20" width="270" height="30" as="geometry">
            <mxRectangle width="270" height="30" as="alternateBounds" />
          </mxGeometry>
        </mxCell>
        <mxCell id="Mc_kpRLNQTw_WZLSpTaW-408" value="" style="shape=tableRow;horizontal=0;startSize=0;swimlaneHead=0;swimlaneBody=0;fillColor=none;collapsible=0;dropTarget=0;points=[[0,0.5],[1,0.5]];portConstraint=eastwest;top=0;left=0;right=0;bottom=0;fontColor=#000000;" parent="Mc_kpRLNQTw_WZLSpTaW-383" vertex="1">
          <mxGeometry y="270" width="290" height="30" as="geometry" />
        </mxCell>
        <mxCell id="Mc_kpRLNQTw_WZLSpTaW-409" value="" style="shape=partialRectangle;connectable=0;fillColor=none;top=0;left=0;bottom=0;right=0;editable=1;overflow=hidden;fontColor=#000000;" parent="Mc_kpRLNQTw_WZLSpTaW-408" vertex="1">
          <mxGeometry width="20" height="30" as="geometry">
            <mxRectangle width="20" height="30" as="alternateBounds" />
          </mxGeometry>
        </mxCell>
        <mxCell id="Mc_kpRLNQTw_WZLSpTaW-410" value="likes_count = models.IntegerField(null=True, blank=True)" style="shape=partialRectangle;connectable=0;fillColor=none;top=0;left=0;bottom=0;right=0;align=left;spacingLeft=6;overflow=hidden;fontColor=#000000;" parent="Mc_kpRLNQTw_WZLSpTaW-408" vertex="1">
          <mxGeometry x="20" width="270" height="30" as="geometry">
            <mxRectangle width="270" height="30" as="alternateBounds" />
          </mxGeometry>
        </mxCell>
        <mxCell id="Mc_kpRLNQTw_WZLSpTaW-411" value="" style="shape=tableRow;horizontal=0;startSize=0;swimlaneHead=0;swimlaneBody=0;fillColor=none;collapsible=0;dropTarget=0;points=[[0,0.5],[1,0.5]];portConstraint=eastwest;top=0;left=0;right=0;bottom=0;fontColor=#000000;" parent="Mc_kpRLNQTw_WZLSpTaW-383" vertex="1">
          <mxGeometry y="300" width="290" height="30" as="geometry" />
        </mxCell>
        <mxCell id="Mc_kpRLNQTw_WZLSpTaW-412" value="" style="shape=partialRectangle;connectable=0;fillColor=none;top=0;left=0;bottom=0;right=0;editable=1;overflow=hidden;fontColor=#000000;" parent="Mc_kpRLNQTw_WZLSpTaW-411" vertex="1">
          <mxGeometry width="20" height="30" as="geometry">
            <mxRectangle width="20" height="30" as="alternateBounds" />
          </mxGeometry>
        </mxCell>
        <mxCell id="Mc_kpRLNQTw_WZLSpTaW-413" value="social_media_link = models.URLField(max_length=500)" style="shape=partialRectangle;connectable=0;fillColor=none;top=0;left=0;bottom=0;right=0;align=left;spacingLeft=6;overflow=hidden;fontColor=#000000;" parent="Mc_kpRLNQTw_WZLSpTaW-411" vertex="1">
          <mxGeometry x="20" width="270" height="30" as="geometry">
            <mxRectangle width="270" height="30" as="alternateBounds" />
          </mxGeometry>
        </mxCell>
        <mxCell id="Mc_kpRLNQTw_WZLSpTaW-414" value="" style="shape=tableRow;horizontal=0;startSize=0;swimlaneHead=0;swimlaneBody=0;fillColor=none;collapsible=0;dropTarget=0;points=[[0,0.5],[1,0.5]];portConstraint=eastwest;top=0;left=0;right=0;bottom=0;fontColor=#000000;" parent="Mc_kpRLNQTw_WZLSpTaW-383" vertex="1">
          <mxGeometry y="330" width="290" height="30" as="geometry" />
        </mxCell>
        <mxCell id="Mc_kpRLNQTw_WZLSpTaW-415" value="" style="shape=partialRectangle;connectable=0;fillColor=none;top=0;left=0;bottom=0;right=0;editable=1;overflow=hidden;fontColor=#000000;" parent="Mc_kpRLNQTw_WZLSpTaW-414" vertex="1">
          <mxGeometry width="20" height="30" as="geometry">
            <mxRectangle width="20" height="30" as="alternateBounds" />
          </mxGeometry>
        </mxCell>
        <mxCell id="Mc_kpRLNQTw_WZLSpTaW-416" value="video_url = models.URLField(max_length=5000, null=True, blank=True)" style="shape=partialRectangle;connectable=0;fillColor=none;top=0;left=0;bottom=0;right=0;align=left;spacingLeft=6;overflow=hidden;fontColor=#000000;" parent="Mc_kpRLNQTw_WZLSpTaW-414" vertex="1">
          <mxGeometry x="20" width="270" height="30" as="geometry">
            <mxRectangle width="270" height="30" as="alternateBounds" />
          </mxGeometry>
        </mxCell>
        <mxCell id="Mc_kpRLNQTw_WZLSpTaW-417" value="" style="shape=tableRow;horizontal=0;startSize=0;swimlaneHead=0;swimlaneBody=0;fillColor=none;collapsible=0;dropTarget=0;points=[[0,0.5],[1,0.5]];portConstraint=eastwest;top=0;left=0;right=0;bottom=0;fontColor=#000000;" parent="Mc_kpRLNQTw_WZLSpTaW-383" vertex="1">
          <mxGeometry y="360" width="290" height="30" as="geometry" />
        </mxCell>
        <mxCell id="Mc_kpRLNQTw_WZLSpTaW-418" value="" style="shape=partialRectangle;connectable=0;fillColor=none;top=0;left=0;bottom=0;right=0;editable=1;overflow=hidden;fontColor=#000000;" parent="Mc_kpRLNQTw_WZLSpTaW-417" vertex="1">
          <mxGeometry width="20" height="30" as="geometry">
            <mxRectangle width="20" height="30" as="alternateBounds" />
          </mxGeometry>
        </mxCell>
        <mxCell id="Mc_kpRLNQTw_WZLSpTaW-419" value="video_view_count = models.IntegerField(null=True, blank=True)" style="shape=partialRectangle;connectable=0;fillColor=none;top=0;left=0;bottom=0;right=0;align=left;spacingLeft=6;overflow=hidden;fontColor=#000000;" parent="Mc_kpRLNQTw_WZLSpTaW-417" vertex="1">
          <mxGeometry x="20" width="270" height="30" as="geometry">
            <mxRectangle width="270" height="30" as="alternateBounds" />
          </mxGeometry>
        </mxCell>
        <mxCell id="Mc_kpRLNQTw_WZLSpTaW-420" value="" style="shape=tableRow;horizontal=0;startSize=0;swimlaneHead=0;swimlaneBody=0;fillColor=none;collapsible=0;dropTarget=0;points=[[0,0.5],[1,0.5]];portConstraint=eastwest;top=0;left=0;right=0;bottom=0;fontColor=#000000;" parent="Mc_kpRLNQTw_WZLSpTaW-383" vertex="1">
          <mxGeometry y="390" width="290" height="30" as="geometry" />
        </mxCell>
        <mxCell id="Mc_kpRLNQTw_WZLSpTaW-421" value="" style="shape=partialRectangle;connectable=0;fillColor=none;top=0;left=0;bottom=0;right=0;editable=1;overflow=hidden;fontColor=#000000;" parent="Mc_kpRLNQTw_WZLSpTaW-420" vertex="1">
          <mxGeometry width="20" height="30" as="geometry">
            <mxRectangle width="20" height="30" as="alternateBounds" />
          </mxGeometry>
        </mxCell>
        <mxCell id="Mc_kpRLNQTw_WZLSpTaW-422" value="username = models.URLField(max_length=500)" style="shape=partialRectangle;connectable=0;fillColor=none;top=0;left=0;bottom=0;right=0;align=left;spacingLeft=6;overflow=hidden;fontColor=#000000;" parent="Mc_kpRLNQTw_WZLSpTaW-420" vertex="1">
          <mxGeometry x="20" width="270" height="30" as="geometry">
            <mxRectangle width="270" height="30" as="alternateBounds" />
          </mxGeometry>
        </mxCell>
        <mxCell id="Mc_kpRLNQTw_WZLSpTaW-423" value="" style="shape=tableRow;horizontal=0;startSize=0;swimlaneHead=0;swimlaneBody=0;fillColor=none;collapsible=0;dropTarget=0;points=[[0,0.5],[1,0.5]];portConstraint=eastwest;top=0;left=0;right=0;bottom=0;fontColor=#000000;" parent="Mc_kpRLNQTw_WZLSpTaW-383" vertex="1">
          <mxGeometry y="420" width="290" height="30" as="geometry" />
        </mxCell>
        <mxCell id="Mc_kpRLNQTw_WZLSpTaW-424" value="" style="shape=partialRectangle;connectable=0;fillColor=none;top=0;left=0;bottom=0;right=0;editable=1;overflow=hidden;fontColor=#000000;" parent="Mc_kpRLNQTw_WZLSpTaW-423" vertex="1">
          <mxGeometry width="20" height="30" as="geometry">
            <mxRectangle width="20" height="30" as="alternateBounds" />
          </mxGeometry>
        </mxCell>
        <mxCell id="Mc_kpRLNQTw_WZLSpTaW-425" value="fullname = models.URLField(max_length=500)" style="shape=partialRectangle;connectable=0;fillColor=none;top=0;left=0;bottom=0;right=0;align=left;spacingLeft=6;overflow=hidden;fontColor=#000000;" parent="Mc_kpRLNQTw_WZLSpTaW-423" vertex="1">
          <mxGeometry x="20" width="270" height="30" as="geometry">
            <mxRectangle width="270" height="30" as="alternateBounds" />
          </mxGeometry>
        </mxCell>
        <mxCell id="vtmS_-P3p9IXf-DoCKi2-1" value="TrendingMovies" style="shape=table;startSize=30;container=1;collapsible=1;childLayout=tableLayout;fixedRows=1;rowLines=0;fontStyle=1;align=center;resizeLast=1;fontColor=#000000;" parent="1" vertex="1">
          <mxGeometry x="951" y="-110" width="290" height="120" as="geometry">
            <mxRectangle x="501" y="80" width="130" height="30" as="alternateBounds" />
          </mxGeometry>
        </mxCell>
        <mxCell id="vtmS_-P3p9IXf-DoCKi2-2" value="" style="shape=tableRow;horizontal=0;startSize=0;swimlaneHead=0;swimlaneBody=0;fillColor=none;collapsible=0;dropTarget=0;points=[[0,0.5],[1,0.5]];portConstraint=eastwest;top=0;left=0;right=0;bottom=1;fontColor=#000000;" parent="vtmS_-P3p9IXf-DoCKi2-1" vertex="1">
          <mxGeometry y="30" width="290" height="30" as="geometry" />
        </mxCell>
        <mxCell id="vtmS_-P3p9IXf-DoCKi2-3" value="PK" style="shape=partialRectangle;connectable=0;fillColor=none;top=0;left=0;bottom=0;right=0;fontStyle=1;overflow=hidden;fontColor=#000000;" parent="vtmS_-P3p9IXf-DoCKi2-2" vertex="1">
          <mxGeometry width="20" height="30" as="geometry">
            <mxRectangle width="20" height="30" as="alternateBounds" />
          </mxGeometry>
        </mxCell>
        <mxCell id="vtmS_-P3p9IXf-DoCKi2-4" value="id = models.BigAutoField(primary_key=True)" style="shape=partialRectangle;connectable=0;fillColor=none;top=0;left=0;bottom=0;right=0;align=left;spacingLeft=6;fontStyle=5;overflow=hidden;fontColor=#000000;" parent="vtmS_-P3p9IXf-DoCKi2-2" vertex="1">
          <mxGeometry x="20" width="270" height="30" as="geometry">
            <mxRectangle width="270" height="30" as="alternateBounds" />
          </mxGeometry>
        </mxCell>
        <mxCell id="vtmS_-P3p9IXf-DoCKi2-5" value="" style="shape=tableRow;horizontal=0;startSize=0;swimlaneHead=0;swimlaneBody=0;fillColor=none;collapsible=0;dropTarget=0;points=[[0,0.5],[1,0.5]];portConstraint=eastwest;top=0;left=0;right=0;bottom=0;fontColor=#000000;" parent="vtmS_-P3p9IXf-DoCKi2-1" vertex="1">
          <mxGeometry y="60" width="290" height="30" as="geometry" />
        </mxCell>
        <mxCell id="vtmS_-P3p9IXf-DoCKi2-6" value="" style="shape=partialRectangle;connectable=0;fillColor=none;top=0;left=0;bottom=0;right=0;editable=1;overflow=hidden;fontColor=#000000;" parent="vtmS_-P3p9IXf-DoCKi2-5" vertex="1">
          <mxGeometry width="20" height="30" as="geometry">
            <mxRectangle width="20" height="30" as="alternateBounds" />
          </mxGeometry>
        </mxCell>
        <mxCell id="vtmS_-P3p9IXf-DoCKi2-7" value="movie_name = models.CharField(max_length=255)" style="shape=partialRectangle;connectable=0;fillColor=none;top=0;left=0;bottom=0;right=0;align=left;spacingLeft=6;overflow=hidden;fontColor=#000000;" parent="vtmS_-P3p9IXf-DoCKi2-5" vertex="1">
          <mxGeometry x="20" width="270" height="30" as="geometry">
            <mxRectangle width="270" height="30" as="alternateBounds" />
          </mxGeometry>
        </mxCell>
        <mxCell id="vtmS_-P3p9IXf-DoCKi2-8" value="" style="shape=tableRow;horizontal=0;startSize=0;swimlaneHead=0;swimlaneBody=0;fillColor=none;collapsible=0;dropTarget=0;points=[[0,0.5],[1,0.5]];portConstraint=eastwest;top=0;left=0;right=0;bottom=0;fontColor=#000000;" parent="vtmS_-P3p9IXf-DoCKi2-1" vertex="1">
          <mxGeometry y="90" width="290" height="30" as="geometry" />
        </mxCell>
        <mxCell id="vtmS_-P3p9IXf-DoCKi2-9" value="" style="shape=partialRectangle;connectable=0;fillColor=none;top=0;left=0;bottom=0;right=0;editable=1;overflow=hidden;fontColor=#000000;" parent="vtmS_-P3p9IXf-DoCKi2-8" vertex="1">
          <mxGeometry width="20" height="30" as="geometry">
            <mxRectangle width="20" height="30" as="alternateBounds" />
          </mxGeometry>
        </mxCell>
        <mxCell id="vtmS_-P3p9IXf-DoCKi2-10" value="imdb_id = models.CharField(max_length=255)" style="shape=partialRectangle;connectable=0;fillColor=none;top=0;left=0;bottom=0;right=0;align=left;spacingLeft=6;overflow=hidden;fontColor=#000000;" parent="vtmS_-P3p9IXf-DoCKi2-8" vertex="1">
          <mxGeometry x="20" width="270" height="30" as="geometry">
            <mxRectangle width="270" height="30" as="alternateBounds" />
          </mxGeometry>
        </mxCell>
        <mxCell id="vtmS_-P3p9IXf-DoCKi2-11" value="TrendingMoviePosts" style="shape=table;startSize=30;container=1;collapsible=1;childLayout=tableLayout;fixedRows=1;rowLines=0;fontStyle=1;align=center;resizeLast=1;fontColor=#000000;" parent="1" vertex="1">
          <mxGeometry x="1720" y="-160" width="290" height="360" as="geometry">
            <mxRectangle x="501" y="80" width="130" height="30" as="alternateBounds" />
          </mxGeometry>
        </mxCell>
        <mxCell id="vtmS_-P3p9IXf-DoCKi2-12" value="" style="shape=tableRow;horizontal=0;startSize=0;swimlaneHead=0;swimlaneBody=0;fillColor=none;collapsible=0;dropTarget=0;points=[[0,0.5],[1,0.5]];portConstraint=eastwest;top=0;left=0;right=0;bottom=1;fontColor=#000000;" parent="vtmS_-P3p9IXf-DoCKi2-11" vertex="1">
          <mxGeometry y="30" width="290" height="30" as="geometry" />
        </mxCell>
        <mxCell id="vtmS_-P3p9IXf-DoCKi2-13" value="PK" style="shape=partialRectangle;connectable=0;fillColor=none;top=0;left=0;bottom=0;right=0;fontStyle=1;overflow=hidden;fontColor=#000000;" parent="vtmS_-P3p9IXf-DoCKi2-12" vertex="1">
          <mxGeometry width="20" height="30" as="geometry">
            <mxRectangle width="20" height="30" as="alternateBounds" />
          </mxGeometry>
        </mxCell>
        <mxCell id="vtmS_-P3p9IXf-DoCKi2-14" value="id = models.BigAutoField(primary_key=True)" style="shape=partialRectangle;connectable=0;fillColor=none;top=0;left=0;bottom=0;right=0;align=left;spacingLeft=6;fontStyle=5;overflow=hidden;fontColor=#000000;" parent="vtmS_-P3p9IXf-DoCKi2-12" vertex="1">
          <mxGeometry x="20" width="270" height="30" as="geometry">
            <mxRectangle width="270" height="30" as="alternateBounds" />
          </mxGeometry>
        </mxCell>
        <mxCell id="vtmS_-P3p9IXf-DoCKi2-18" value="" style="shape=tableRow;horizontal=0;startSize=0;swimlaneHead=0;swimlaneBody=0;fillColor=none;collapsible=0;dropTarget=0;points=[[0,0.5],[1,0.5]];portConstraint=eastwest;top=0;left=0;right=0;bottom=0;fontColor=#000000;" parent="vtmS_-P3p9IXf-DoCKi2-11" vertex="1">
          <mxGeometry y="60" width="290" height="30" as="geometry" />
        </mxCell>
        <mxCell id="vtmS_-P3p9IXf-DoCKi2-19" value="" style="shape=partialRectangle;connectable=0;fillColor=none;top=0;left=0;bottom=0;right=0;editable=1;overflow=hidden;fontColor=#000000;" parent="vtmS_-P3p9IXf-DoCKi2-18" vertex="1">
          <mxGeometry width="20" height="30" as="geometry">
            <mxRectangle width="20" height="30" as="alternateBounds" />
          </mxGeometry>
        </mxCell>
        <mxCell id="vtmS_-P3p9IXf-DoCKi2-20" value="movie = models.ForeignKey(TrendingMovies, on_delete=models.CASCADE)" style="shape=partialRectangle;connectable=0;fillColor=none;top=0;left=0;bottom=0;right=0;align=left;spacingLeft=6;overflow=hidden;fontColor=#000000;" parent="vtmS_-P3p9IXf-DoCKi2-18" vertex="1">
          <mxGeometry x="20" width="270" height="30" as="geometry">
            <mxRectangle width="270" height="30" as="alternateBounds" />
          </mxGeometry>
        </mxCell>
        <mxCell id="vtmS_-P3p9IXf-DoCKi2-21" value="" style="shape=tableRow;horizontal=0;startSize=0;swimlaneHead=0;swimlaneBody=0;fillColor=none;collapsible=0;dropTarget=0;points=[[0,0.5],[1,0.5]];portConstraint=eastwest;top=0;left=0;right=0;bottom=0;fontColor=#000000;" parent="vtmS_-P3p9IXf-DoCKi2-11" vertex="1">
          <mxGeometry y="90" width="290" height="30" as="geometry" />
        </mxCell>
        <mxCell id="vtmS_-P3p9IXf-DoCKi2-22" value="" style="shape=partialRectangle;connectable=0;fillColor=none;top=0;left=0;bottom=0;right=0;editable=1;overflow=hidden;fontColor=#000000;" parent="vtmS_-P3p9IXf-DoCKi2-21" vertex="1">
          <mxGeometry width="20" height="30" as="geometry">
            <mxRectangle width="20" height="30" as="alternateBounds" />
          </mxGeometry>
        </mxCell>
        <mxCell id="vtmS_-P3p9IXf-DoCKi2-23" value="comment_count = models.IntegerField(null=True, blank=True)" style="shape=partialRectangle;connectable=0;fillColor=none;top=0;left=0;bottom=0;right=0;align=left;spacingLeft=6;overflow=hidden;fontColor=#000000;" parent="vtmS_-P3p9IXf-DoCKi2-21" vertex="1">
          <mxGeometry x="20" width="270" height="30" as="geometry">
            <mxRectangle width="270" height="30" as="alternateBounds" />
          </mxGeometry>
        </mxCell>
        <mxCell id="vtmS_-P3p9IXf-DoCKi2-24" value="" style="shape=tableRow;horizontal=0;startSize=0;swimlaneHead=0;swimlaneBody=0;fillColor=none;collapsible=0;dropTarget=0;points=[[0,0.5],[1,0.5]];portConstraint=eastwest;top=0;left=0;right=0;bottom=0;fontColor=#000000;" parent="vtmS_-P3p9IXf-DoCKi2-11" vertex="1">
          <mxGeometry y="120" width="290" height="30" as="geometry" />
        </mxCell>
        <mxCell id="vtmS_-P3p9IXf-DoCKi2-25" value="" style="shape=partialRectangle;connectable=0;fillColor=none;top=0;left=0;bottom=0;right=0;editable=1;overflow=hidden;fontColor=#000000;" parent="vtmS_-P3p9IXf-DoCKi2-24" vertex="1">
          <mxGeometry width="20" height="30" as="geometry">
            <mxRectangle width="20" height="30" as="alternateBounds" />
          </mxGeometry>
        </mxCell>
        <mxCell id="vtmS_-P3p9IXf-DoCKi2-26" value="caption = models.CharField(max_length=5000, null=True, blank=True)" style="shape=partialRectangle;connectable=0;fillColor=none;top=0;left=0;bottom=0;right=0;align=left;spacingLeft=6;overflow=hidden;fontColor=#000000;" parent="vtmS_-P3p9IXf-DoCKi2-24" vertex="1">
          <mxGeometry x="20" width="270" height="30" as="geometry">
            <mxRectangle width="270" height="30" as="alternateBounds" />
          </mxGeometry>
        </mxCell>
        <mxCell id="vtmS_-P3p9IXf-DoCKi2-27" value="" style="shape=tableRow;horizontal=0;startSize=0;swimlaneHead=0;swimlaneBody=0;fillColor=none;collapsible=0;dropTarget=0;points=[[0,0.5],[1,0.5]];portConstraint=eastwest;top=0;left=0;right=0;bottom=0;fontColor=#000000;" parent="vtmS_-P3p9IXf-DoCKi2-11" vertex="1">
          <mxGeometry y="150" width="290" height="30" as="geometry" />
        </mxCell>
        <mxCell id="vtmS_-P3p9IXf-DoCKi2-28" value="" style="shape=partialRectangle;connectable=0;fillColor=none;top=0;left=0;bottom=0;right=0;editable=1;overflow=hidden;fontColor=#000000;" parent="vtmS_-P3p9IXf-DoCKi2-27" vertex="1">
          <mxGeometry width="20" height="30" as="geometry">
            <mxRectangle width="20" height="30" as="alternateBounds" />
          </mxGeometry>
        </mxCell>
        <mxCell id="vtmS_-P3p9IXf-DoCKi2-29" value="full_name = models.URLField(max_length=500)" style="shape=partialRectangle;connectable=0;fillColor=none;top=0;left=0;bottom=0;right=0;align=left;spacingLeft=6;overflow=hidden;fontColor=#000000;" parent="vtmS_-P3p9IXf-DoCKi2-27" vertex="1">
          <mxGeometry x="20" width="270" height="30" as="geometry">
            <mxRectangle width="270" height="30" as="alternateBounds" />
          </mxGeometry>
        </mxCell>
        <mxCell id="vtmS_-P3p9IXf-DoCKi2-30" value="" style="shape=tableRow;horizontal=0;startSize=0;swimlaneHead=0;swimlaneBody=0;fillColor=none;collapsible=0;dropTarget=0;points=[[0,0.5],[1,0.5]];portConstraint=eastwest;top=0;left=0;right=0;bottom=0;fontColor=#000000;" parent="vtmS_-P3p9IXf-DoCKi2-11" vertex="1">
          <mxGeometry y="180" width="290" height="30" as="geometry" />
        </mxCell>
        <mxCell id="vtmS_-P3p9IXf-DoCKi2-31" value="" style="shape=partialRectangle;connectable=0;fillColor=none;top=0;left=0;bottom=0;right=0;editable=1;overflow=hidden;fontColor=#000000;" parent="vtmS_-P3p9IXf-DoCKi2-30" vertex="1">
          <mxGeometry width="20" height="30" as="geometry">
            <mxRectangle width="20" height="30" as="alternateBounds" />
          </mxGeometry>
        </mxCell>
        <mxCell id="vtmS_-P3p9IXf-DoCKi2-32" value="img_url = models.URLField(max_length=500)" style="shape=partialRectangle;connectable=0;fillColor=none;top=0;left=0;bottom=0;right=0;align=left;spacingLeft=6;overflow=hidden;fontColor=#000000;" parent="vtmS_-P3p9IXf-DoCKi2-30" vertex="1">
          <mxGeometry x="20" width="270" height="30" as="geometry">
            <mxRectangle width="270" height="30" as="alternateBounds" />
          </mxGeometry>
        </mxCell>
        <mxCell id="vtmS_-P3p9IXf-DoCKi2-33" value="" style="shape=tableRow;horizontal=0;startSize=0;swimlaneHead=0;swimlaneBody=0;fillColor=none;collapsible=0;dropTarget=0;points=[[0,0.5],[1,0.5]];portConstraint=eastwest;top=0;left=0;right=0;bottom=0;fontColor=#000000;" parent="vtmS_-P3p9IXf-DoCKi2-11" vertex="1">
          <mxGeometry y="210" width="290" height="30" as="geometry" />
        </mxCell>
        <mxCell id="vtmS_-P3p9IXf-DoCKi2-34" value="" style="shape=partialRectangle;connectable=0;fillColor=none;top=0;left=0;bottom=0;right=0;editable=1;overflow=hidden;fontColor=#000000;" parent="vtmS_-P3p9IXf-DoCKi2-33" vertex="1">
          <mxGeometry width="20" height="30" as="geometry">
            <mxRectangle width="20" height="30" as="alternateBounds" />
          </mxGeometry>
        </mxCell>
        <mxCell id="vtmS_-P3p9IXf-DoCKi2-35" value="like_count = models.IntegerField(null=True, blank=True)" style="shape=partialRectangle;connectable=0;fillColor=none;top=0;left=0;bottom=0;right=0;align=left;spacingLeft=6;overflow=hidden;fontColor=#000000;" parent="vtmS_-P3p9IXf-DoCKi2-33" vertex="1">
          <mxGeometry x="20" width="270" height="30" as="geometry">
            <mxRectangle width="270" height="30" as="alternateBounds" />
          </mxGeometry>
        </mxCell>
        <mxCell id="vtmS_-P3p9IXf-DoCKi2-39" value="" style="shape=tableRow;horizontal=0;startSize=0;swimlaneHead=0;swimlaneBody=0;fillColor=none;collapsible=0;dropTarget=0;points=[[0,0.5],[1,0.5]];portConstraint=eastwest;top=0;left=0;right=0;bottom=0;fontColor=#000000;" parent="vtmS_-P3p9IXf-DoCKi2-11" vertex="1">
          <mxGeometry y="240" width="290" height="30" as="geometry" />
        </mxCell>
        <mxCell id="vtmS_-P3p9IXf-DoCKi2-40" value="" style="shape=partialRectangle;connectable=0;fillColor=none;top=0;left=0;bottom=0;right=0;editable=1;overflow=hidden;fontColor=#000000;" parent="vtmS_-P3p9IXf-DoCKi2-39" vertex="1">
          <mxGeometry width="20" height="30" as="geometry">
            <mxRectangle width="20" height="30" as="alternateBounds" />
          </mxGeometry>
        </mxCell>
        <mxCell id="vtmS_-P3p9IXf-DoCKi2-41" value="post_url = models.URLField(max_length=500)" style="shape=partialRectangle;connectable=0;fillColor=none;top=0;left=0;bottom=0;right=0;align=left;spacingLeft=6;overflow=hidden;fontColor=#000000;" parent="vtmS_-P3p9IXf-DoCKi2-39" vertex="1">
          <mxGeometry x="20" width="270" height="30" as="geometry">
            <mxRectangle width="270" height="30" as="alternateBounds" />
          </mxGeometry>
        </mxCell>
        <mxCell id="vtmS_-P3p9IXf-DoCKi2-42" value="" style="shape=tableRow;horizontal=0;startSize=0;swimlaneHead=0;swimlaneBody=0;fillColor=none;collapsible=0;dropTarget=0;points=[[0,0.5],[1,0.5]];portConstraint=eastwest;top=0;left=0;right=0;bottom=0;fontColor=#000000;" parent="vtmS_-P3p9IXf-DoCKi2-11" vertex="1">
          <mxGeometry y="270" width="290" height="30" as="geometry" />
        </mxCell>
        <mxCell id="vtmS_-P3p9IXf-DoCKi2-43" value="" style="shape=partialRectangle;connectable=0;fillColor=none;top=0;left=0;bottom=0;right=0;editable=1;overflow=hidden;fontColor=#000000;" parent="vtmS_-P3p9IXf-DoCKi2-42" vertex="1">
          <mxGeometry width="20" height="30" as="geometry">
            <mxRectangle width="20" height="30" as="alternateBounds" />
          </mxGeometry>
        </mxCell>
        <mxCell id="vtmS_-P3p9IXf-DoCKi2-44" value="profile_url = models.URLField(max_length=500)" style="shape=partialRectangle;connectable=0;fillColor=none;top=0;left=0;bottom=0;right=0;align=left;spacingLeft=6;overflow=hidden;fontColor=#000000;" parent="vtmS_-P3p9IXf-DoCKi2-42" vertex="1">
          <mxGeometry x="20" width="270" height="30" as="geometry">
            <mxRectangle width="270" height="30" as="alternateBounds" />
          </mxGeometry>
        </mxCell>
        <mxCell id="vtmS_-P3p9IXf-DoCKi2-45" value="" style="shape=tableRow;horizontal=0;startSize=0;swimlaneHead=0;swimlaneBody=0;fillColor=none;collapsible=0;dropTarget=0;points=[[0,0.5],[1,0.5]];portConstraint=eastwest;top=0;left=0;right=0;bottom=0;fontColor=#000000;" parent="vtmS_-P3p9IXf-DoCKi2-11" vertex="1">
          <mxGeometry y="300" width="290" height="30" as="geometry" />
        </mxCell>
        <mxCell id="vtmS_-P3p9IXf-DoCKi2-46" value="" style="shape=partialRectangle;connectable=0;fillColor=none;top=0;left=0;bottom=0;right=0;editable=1;overflow=hidden;fontColor=#000000;" parent="vtmS_-P3p9IXf-DoCKi2-45" vertex="1">
          <mxGeometry width="20" height="30" as="geometry">
            <mxRectangle width="20" height="30" as="alternateBounds" />
          </mxGeometry>
        </mxCell>
        <mxCell id="vtmS_-P3p9IXf-DoCKi2-47" value="pub_date = models.DateTimeField()" style="shape=partialRectangle;connectable=0;fillColor=none;top=0;left=0;bottom=0;right=0;align=left;spacingLeft=6;overflow=hidden;fontColor=#000000;" parent="vtmS_-P3p9IXf-DoCKi2-45" vertex="1">
          <mxGeometry x="20" width="270" height="30" as="geometry">
            <mxRectangle width="270" height="30" as="alternateBounds" />
          </mxGeometry>
        </mxCell>
        <mxCell id="vtmS_-P3p9IXf-DoCKi2-48" value="" style="shape=tableRow;horizontal=0;startSize=0;swimlaneHead=0;swimlaneBody=0;fillColor=none;collapsible=0;dropTarget=0;points=[[0,0.5],[1,0.5]];portConstraint=eastwest;top=0;left=0;right=0;bottom=0;fontColor=#000000;" parent="vtmS_-P3p9IXf-DoCKi2-11" vertex="1">
          <mxGeometry y="330" width="290" height="30" as="geometry" />
        </mxCell>
        <mxCell id="vtmS_-P3p9IXf-DoCKi2-49" value="" style="shape=partialRectangle;connectable=0;fillColor=none;top=0;left=0;bottom=0;right=0;editable=1;overflow=hidden;fontColor=#000000;" parent="vtmS_-P3p9IXf-DoCKi2-48" vertex="1">
          <mxGeometry width="20" height="30" as="geometry">
            <mxRectangle width="20" height="30" as="alternateBounds" />
          </mxGeometry>
        </mxCell>
        <mxCell id="vtmS_-P3p9IXf-DoCKi2-50" value="username = models.CharField(max_length=500)" style="shape=partialRectangle;connectable=0;fillColor=none;top=0;left=0;bottom=0;right=0;align=left;spacingLeft=6;overflow=hidden;fontColor=#000000;" parent="vtmS_-P3p9IXf-DoCKi2-48" vertex="1">
          <mxGeometry x="20" width="270" height="30" as="geometry">
            <mxRectangle width="270" height="30" as="alternateBounds" />
          </mxGeometry>
        </mxCell>
        <mxCell id="vtmS_-P3p9IXf-DoCKi2-54" value="" style="fontSize=12;html=1;endArrow=ERoneToMany;rounded=0;exitX=0.003;exitY=0.142;exitDx=0;exitDy=0;exitPerimeter=0;" parent="1" source="vtmS_-P3p9IXf-DoCKi2-1" edge="1">
          <mxGeometry width="100" height="100" relative="1" as="geometry">
            <mxPoint x="900" y="-90" as="sourcePoint" />
            <mxPoint x="1720" y="-80" as="targetPoint" />
            <Array as="points">
              <mxPoint x="900" y="-93" />
              <mxPoint x="900" y="-180" />
              <mxPoint x="1690" y="-180" />
              <mxPoint x="1690" y="-80" />
            </Array>
          </mxGeometry>
        </mxCell>
        <mxCell id="vtmS_-P3p9IXf-DoCKi2-55" value="TrendingProductPosts" style="shape=table;startSize=30;container=1;collapsible=1;childLayout=tableLayout;fixedRows=1;rowLines=0;fontStyle=1;align=center;resizeLast=1;fontColor=#000000;" parent="1" vertex="1">
          <mxGeometry x="970" y="240" width="290" height="480" as="geometry">
            <mxRectangle x="501" y="80" width="130" height="30" as="alternateBounds" />
          </mxGeometry>
        </mxCell>
        <mxCell id="vtmS_-P3p9IXf-DoCKi2-56" value="" style="shape=tableRow;horizontal=0;startSize=0;swimlaneHead=0;swimlaneBody=0;fillColor=none;collapsible=0;dropTarget=0;points=[[0,0.5],[1,0.5]];portConstraint=eastwest;top=0;left=0;right=0;bottom=1;fontColor=#000000;" parent="vtmS_-P3p9IXf-DoCKi2-55" vertex="1">
          <mxGeometry y="30" width="290" height="30" as="geometry" />
        </mxCell>
        <mxCell id="vtmS_-P3p9IXf-DoCKi2-57" value="PK" style="shape=partialRectangle;connectable=0;fillColor=none;top=0;left=0;bottom=0;right=0;fontStyle=1;overflow=hidden;fontColor=#000000;" parent="vtmS_-P3p9IXf-DoCKi2-56" vertex="1">
          <mxGeometry width="20" height="30" as="geometry">
            <mxRectangle width="20" height="30" as="alternateBounds" />
          </mxGeometry>
        </mxCell>
        <mxCell id="vtmS_-P3p9IXf-DoCKi2-58" value="id = models.BigAutoField(primary_key=True)" style="shape=partialRectangle;connectable=0;fillColor=none;top=0;left=0;bottom=0;right=0;align=left;spacingLeft=6;fontStyle=5;overflow=hidden;fontColor=#000000;" parent="vtmS_-P3p9IXf-DoCKi2-56" vertex="1">
          <mxGeometry x="20" width="270" height="30" as="geometry">
            <mxRectangle width="270" height="30" as="alternateBounds" />
          </mxGeometry>
        </mxCell>
        <mxCell id="vtmS_-P3p9IXf-DoCKi2-59" value="" style="shape=tableRow;horizontal=0;startSize=0;swimlaneHead=0;swimlaneBody=0;fillColor=none;collapsible=0;dropTarget=0;points=[[0,0.5],[1,0.5]];portConstraint=eastwest;top=0;left=0;right=0;bottom=0;fontColor=#000000;" parent="vtmS_-P3p9IXf-DoCKi2-55" vertex="1">
          <mxGeometry y="60" width="290" height="30" as="geometry" />
        </mxCell>
        <mxCell id="vtmS_-P3p9IXf-DoCKi2-60" value="" style="shape=partialRectangle;connectable=0;fillColor=none;top=0;left=0;bottom=0;right=0;editable=1;overflow=hidden;fontColor=#000000;" parent="vtmS_-P3p9IXf-DoCKi2-59" vertex="1">
          <mxGeometry width="20" height="30" as="geometry">
            <mxRectangle width="20" height="30" as="alternateBounds" />
          </mxGeometry>
        </mxCell>
        <mxCell id="vtmS_-P3p9IXf-DoCKi2-61" value="product_title = models.CharField(max_length=5000)" style="shape=partialRectangle;connectable=0;fillColor=none;top=0;left=0;bottom=0;right=0;align=left;spacingLeft=6;overflow=hidden;fontColor=#000000;" parent="vtmS_-P3p9IXf-DoCKi2-59" vertex="1">
          <mxGeometry x="20" width="270" height="30" as="geometry">
            <mxRectangle width="270" height="30" as="alternateBounds" />
          </mxGeometry>
        </mxCell>
        <mxCell id="vtmS_-P3p9IXf-DoCKi2-62" value="" style="shape=tableRow;horizontal=0;startSize=0;swimlaneHead=0;swimlaneBody=0;fillColor=none;collapsible=0;dropTarget=0;points=[[0,0.5],[1,0.5]];portConstraint=eastwest;top=0;left=0;right=0;bottom=0;fontColor=#000000;" parent="vtmS_-P3p9IXf-DoCKi2-55" vertex="1">
          <mxGeometry y="90" width="290" height="30" as="geometry" />
        </mxCell>
        <mxCell id="vtmS_-P3p9IXf-DoCKi2-63" value="" style="shape=partialRectangle;connectable=0;fillColor=none;top=0;left=0;bottom=0;right=0;editable=1;overflow=hidden;fontColor=#000000;" parent="vtmS_-P3p9IXf-DoCKi2-62" vertex="1">
          <mxGeometry width="20" height="30" as="geometry">
            <mxRectangle width="20" height="30" as="alternateBounds" />
          </mxGeometry>
        </mxCell>
        <mxCell id="vtmS_-P3p9IXf-DoCKi2-64" value="price = models.DecimalField(max_digits=25, decimal_places=2)" style="shape=partialRectangle;connectable=0;fillColor=none;top=0;left=0;bottom=0;right=0;align=left;spacingLeft=6;overflow=hidden;fontColor=#000000;" parent="vtmS_-P3p9IXf-DoCKi2-62" vertex="1">
          <mxGeometry x="20" width="270" height="30" as="geometry">
            <mxRectangle width="270" height="30" as="alternateBounds" />
          </mxGeometry>
        </mxCell>
        <mxCell id="vtmS_-P3p9IXf-DoCKi2-65" value="" style="shape=tableRow;horizontal=0;startSize=0;swimlaneHead=0;swimlaneBody=0;fillColor=none;collapsible=0;dropTarget=0;points=[[0,0.5],[1,0.5]];portConstraint=eastwest;top=0;left=0;right=0;bottom=0;fontColor=#000000;" parent="vtmS_-P3p9IXf-DoCKi2-55" vertex="1">
          <mxGeometry y="120" width="290" height="30" as="geometry" />
        </mxCell>
        <mxCell id="vtmS_-P3p9IXf-DoCKi2-66" value="" style="shape=partialRectangle;connectable=0;fillColor=none;top=0;left=0;bottom=0;right=0;editable=1;overflow=hidden;fontColor=#000000;" parent="vtmS_-P3p9IXf-DoCKi2-65" vertex="1">
          <mxGeometry width="20" height="30" as="geometry">
            <mxRectangle width="20" height="30" as="alternateBounds" />
          </mxGeometry>
        </mxCell>
        <mxCell id="vtmS_-P3p9IXf-DoCKi2-67" value="rating = models.DecimalField(max_digits=2, decimal_places=1)" style="shape=partialRectangle;connectable=0;fillColor=none;top=0;left=0;bottom=0;right=0;align=left;spacingLeft=6;overflow=hidden;fontColor=#000000;" parent="vtmS_-P3p9IXf-DoCKi2-65" vertex="1">
          <mxGeometry x="20" width="270" height="30" as="geometry">
            <mxRectangle width="270" height="30" as="alternateBounds" />
          </mxGeometry>
        </mxCell>
        <mxCell id="vtmS_-P3p9IXf-DoCKi2-68" value="" style="shape=tableRow;horizontal=0;startSize=0;swimlaneHead=0;swimlaneBody=0;fillColor=none;collapsible=0;dropTarget=0;points=[[0,0.5],[1,0.5]];portConstraint=eastwest;top=0;left=0;right=0;bottom=0;fontColor=#000000;" parent="vtmS_-P3p9IXf-DoCKi2-55" vertex="1">
          <mxGeometry y="150" width="290" height="30" as="geometry" />
        </mxCell>
        <mxCell id="vtmS_-P3p9IXf-DoCKi2-69" value="" style="shape=partialRectangle;connectable=0;fillColor=none;top=0;left=0;bottom=0;right=0;editable=1;overflow=hidden;fontColor=#000000;" parent="vtmS_-P3p9IXf-DoCKi2-68" vertex="1">
          <mxGeometry width="20" height="30" as="geometry">
            <mxRectangle width="20" height="30" as="alternateBounds" />
          </mxGeometry>
        </mxCell>
        <mxCell id="vtmS_-P3p9IXf-DoCKi2-70" value="product_url = models.URLField(max_length=500)" style="shape=partialRectangle;connectable=0;fillColor=none;top=0;left=0;bottom=0;right=0;align=left;spacingLeft=6;overflow=hidden;fontColor=#000000;" parent="vtmS_-P3p9IXf-DoCKi2-68" vertex="1">
          <mxGeometry x="20" width="270" height="30" as="geometry">
            <mxRectangle width="270" height="30" as="alternateBounds" />
          </mxGeometry>
        </mxCell>
        <mxCell id="vtmS_-P3p9IXf-DoCKi2-71" value="" style="shape=tableRow;horizontal=0;startSize=0;swimlaneHead=0;swimlaneBody=0;fillColor=none;collapsible=0;dropTarget=0;points=[[0,0.5],[1,0.5]];portConstraint=eastwest;top=0;left=0;right=0;bottom=0;fontColor=#000000;" parent="vtmS_-P3p9IXf-DoCKi2-55" vertex="1">
          <mxGeometry y="180" width="290" height="30" as="geometry" />
        </mxCell>
        <mxCell id="vtmS_-P3p9IXf-DoCKi2-72" value="" style="shape=partialRectangle;connectable=0;fillColor=none;top=0;left=0;bottom=0;right=0;editable=1;overflow=hidden;fontColor=#000000;" parent="vtmS_-P3p9IXf-DoCKi2-71" vertex="1">
          <mxGeometry width="20" height="30" as="geometry">
            <mxRectangle width="20" height="30" as="alternateBounds" />
          </mxGeometry>
        </mxCell>
        <mxCell id="vtmS_-P3p9IXf-DoCKi2-73" value="category = models.CharField(max_length=50, null=True, blank=True)" style="shape=partialRectangle;connectable=0;fillColor=none;top=0;left=0;bottom=0;right=0;align=left;spacingLeft=6;overflow=hidden;fontColor=#000000;" parent="vtmS_-P3p9IXf-DoCKi2-71" vertex="1">
          <mxGeometry x="20" width="270" height="30" as="geometry">
            <mxRectangle width="270" height="30" as="alternateBounds" />
          </mxGeometry>
        </mxCell>
        <mxCell id="vtmS_-P3p9IXf-DoCKi2-74" value="" style="shape=tableRow;horizontal=0;startSize=0;swimlaneHead=0;swimlaneBody=0;fillColor=none;collapsible=0;dropTarget=0;points=[[0,0.5],[1,0.5]];portConstraint=eastwest;top=0;left=0;right=0;bottom=0;fontColor=#000000;" parent="vtmS_-P3p9IXf-DoCKi2-55" vertex="1">
          <mxGeometry y="210" width="290" height="30" as="geometry" />
        </mxCell>
        <mxCell id="vtmS_-P3p9IXf-DoCKi2-75" value="" style="shape=partialRectangle;connectable=0;fillColor=none;top=0;left=0;bottom=0;right=0;editable=1;overflow=hidden;fontColor=#000000;" parent="vtmS_-P3p9IXf-DoCKi2-74" vertex="1">
          <mxGeometry width="20" height="30" as="geometry">
            <mxRectangle width="20" height="30" as="alternateBounds" />
          </mxGeometry>
        </mxCell>
        <mxCell id="vtmS_-P3p9IXf-DoCKi2-76" value="post_url = models.URLField(max_length=500)" style="shape=partialRectangle;connectable=0;fillColor=none;top=0;left=0;bottom=0;right=0;align=left;spacingLeft=6;overflow=hidden;fontColor=#000000;" parent="vtmS_-P3p9IXf-DoCKi2-74" vertex="1">
          <mxGeometry x="20" width="270" height="30" as="geometry">
            <mxRectangle width="270" height="30" as="alternateBounds" />
          </mxGeometry>
        </mxCell>
        <mxCell id="vtmS_-P3p9IXf-DoCKi2-77" value="" style="shape=tableRow;horizontal=0;startSize=0;swimlaneHead=0;swimlaneBody=0;fillColor=none;collapsible=0;dropTarget=0;points=[[0,0.5],[1,0.5]];portConstraint=eastwest;top=0;left=0;right=0;bottom=0;fontColor=#000000;" parent="vtmS_-P3p9IXf-DoCKi2-55" vertex="1">
          <mxGeometry y="240" width="290" height="30" as="geometry" />
        </mxCell>
        <mxCell id="vtmS_-P3p9IXf-DoCKi2-78" value="" style="shape=partialRectangle;connectable=0;fillColor=none;top=0;left=0;bottom=0;right=0;editable=1;overflow=hidden;fontColor=#000000;" parent="vtmS_-P3p9IXf-DoCKi2-77" vertex="1">
          <mxGeometry width="20" height="30" as="geometry">
            <mxRectangle width="20" height="30" as="alternateBounds" />
          </mxGeometry>
        </mxCell>
        <mxCell id="vtmS_-P3p9IXf-DoCKi2-79" value="post_caption = models.CharField(max_length=5000, null=True, blank=True)" style="shape=partialRectangle;connectable=0;fillColor=none;top=0;left=0;bottom=0;right=0;align=left;spacingLeft=6;overflow=hidden;fontColor=#000000;" parent="vtmS_-P3p9IXf-DoCKi2-77" vertex="1">
          <mxGeometry x="20" width="270" height="30" as="geometry">
            <mxRectangle width="270" height="30" as="alternateBounds" />
          </mxGeometry>
        </mxCell>
        <mxCell id="vtmS_-P3p9IXf-DoCKi2-80" value="" style="shape=tableRow;horizontal=0;startSize=0;swimlaneHead=0;swimlaneBody=0;fillColor=none;collapsible=0;dropTarget=0;points=[[0,0.5],[1,0.5]];portConstraint=eastwest;top=0;left=0;right=0;bottom=0;fontColor=#000000;" parent="vtmS_-P3p9IXf-DoCKi2-55" vertex="1">
          <mxGeometry y="270" width="290" height="30" as="geometry" />
        </mxCell>
        <mxCell id="vtmS_-P3p9IXf-DoCKi2-81" value="" style="shape=partialRectangle;connectable=0;fillColor=none;top=0;left=0;bottom=0;right=0;editable=1;overflow=hidden;fontColor=#000000;" parent="vtmS_-P3p9IXf-DoCKi2-80" vertex="1">
          <mxGeometry width="20" height="30" as="geometry">
            <mxRectangle width="20" height="30" as="alternateBounds" />
          </mxGeometry>
        </mxCell>
        <mxCell id="vtmS_-P3p9IXf-DoCKi2-82" value="comment_count = models.IntegerField(null=True, blank=True)" style="shape=partialRectangle;connectable=0;fillColor=none;top=0;left=0;bottom=0;right=0;align=left;spacingLeft=6;overflow=hidden;fontColor=#000000;" parent="vtmS_-P3p9IXf-DoCKi2-80" vertex="1">
          <mxGeometry x="20" width="270" height="30" as="geometry">
            <mxRectangle width="270" height="30" as="alternateBounds" />
          </mxGeometry>
        </mxCell>
        <mxCell id="vtmS_-P3p9IXf-DoCKi2-83" value="" style="shape=tableRow;horizontal=0;startSize=0;swimlaneHead=0;swimlaneBody=0;fillColor=none;collapsible=0;dropTarget=0;points=[[0,0.5],[1,0.5]];portConstraint=eastwest;top=0;left=0;right=0;bottom=0;fontColor=#000000;" parent="vtmS_-P3p9IXf-DoCKi2-55" vertex="1">
          <mxGeometry y="300" width="290" height="30" as="geometry" />
        </mxCell>
        <mxCell id="vtmS_-P3p9IXf-DoCKi2-84" value="" style="shape=partialRectangle;connectable=0;fillColor=none;top=0;left=0;bottom=0;right=0;editable=1;overflow=hidden;fontColor=#000000;" parent="vtmS_-P3p9IXf-DoCKi2-83" vertex="1">
          <mxGeometry width="20" height="30" as="geometry">
            <mxRectangle width="20" height="30" as="alternateBounds" />
          </mxGeometry>
        </mxCell>
        <mxCell id="vtmS_-P3p9IXf-DoCKi2-85" value="like_count = models.IntegerField(null=True, blank=True)" style="shape=partialRectangle;connectable=0;fillColor=none;top=0;left=0;bottom=0;right=0;align=left;spacingLeft=6;overflow=hidden;fontColor=#000000;" parent="vtmS_-P3p9IXf-DoCKi2-83" vertex="1">
          <mxGeometry x="20" width="270" height="30" as="geometry">
            <mxRectangle width="270" height="30" as="alternateBounds" />
          </mxGeometry>
        </mxCell>
        <mxCell id="vtmS_-P3p9IXf-DoCKi2-86" value="" style="shape=tableRow;horizontal=0;startSize=0;swimlaneHead=0;swimlaneBody=0;fillColor=none;collapsible=0;dropTarget=0;points=[[0,0.5],[1,0.5]];portConstraint=eastwest;top=0;left=0;right=0;bottom=0;fontColor=#000000;" parent="vtmS_-P3p9IXf-DoCKi2-55" vertex="1">
          <mxGeometry y="330" width="290" height="30" as="geometry" />
        </mxCell>
        <mxCell id="vtmS_-P3p9IXf-DoCKi2-87" value="" style="shape=partialRectangle;connectable=0;fillColor=none;top=0;left=0;bottom=0;right=0;editable=1;overflow=hidden;fontColor=#000000;" parent="vtmS_-P3p9IXf-DoCKi2-86" vertex="1">
          <mxGeometry width="20" height="30" as="geometry">
            <mxRectangle width="20" height="30" as="alternateBounds" />
          </mxGeometry>
        </mxCell>
        <mxCell id="vtmS_-P3p9IXf-DoCKi2-88" value="pub_date = models.DateTimeField(null=True, blank=True)" style="shape=partialRectangle;connectable=0;fillColor=none;top=0;left=0;bottom=0;right=0;align=left;spacingLeft=6;overflow=hidden;fontColor=#000000;" parent="vtmS_-P3p9IXf-DoCKi2-86" vertex="1">
          <mxGeometry x="20" width="270" height="30" as="geometry">
            <mxRectangle width="270" height="30" as="alternateBounds" />
          </mxGeometry>
        </mxCell>
        <mxCell id="vtmS_-P3p9IXf-DoCKi2-89" value="" style="shape=tableRow;horizontal=0;startSize=0;swimlaneHead=0;swimlaneBody=0;fillColor=none;collapsible=0;dropTarget=0;points=[[0,0.5],[1,0.5]];portConstraint=eastwest;top=0;left=0;right=0;bottom=0;fontColor=#000000;" parent="vtmS_-P3p9IXf-DoCKi2-55" vertex="1">
          <mxGeometry y="360" width="290" height="30" as="geometry" />
        </mxCell>
        <mxCell id="vtmS_-P3p9IXf-DoCKi2-90" value="" style="shape=partialRectangle;connectable=0;fillColor=none;top=0;left=0;bottom=0;right=0;editable=1;overflow=hidden;fontColor=#000000;" parent="vtmS_-P3p9IXf-DoCKi2-89" vertex="1">
          <mxGeometry width="20" height="30" as="geometry">
            <mxRectangle width="20" height="30" as="alternateBounds" />
          </mxGeometry>
        </mxCell>
        <mxCell id="vtmS_-P3p9IXf-DoCKi2-91" value="profile_url = models.URLField(max_length=500, null=True, blank=True)" style="shape=partialRectangle;connectable=0;fillColor=none;top=0;left=0;bottom=0;right=0;align=left;spacingLeft=6;overflow=hidden;fontColor=#000000;" parent="vtmS_-P3p9IXf-DoCKi2-89" vertex="1">
          <mxGeometry x="20" width="270" height="30" as="geometry">
            <mxRectangle width="270" height="30" as="alternateBounds" />
          </mxGeometry>
        </mxCell>
        <mxCell id="vtmS_-P3p9IXf-DoCKi2-92" value="" style="shape=tableRow;horizontal=0;startSize=0;swimlaneHead=0;swimlaneBody=0;fillColor=none;collapsible=0;dropTarget=0;points=[[0,0.5],[1,0.5]];portConstraint=eastwest;top=0;left=0;right=0;bottom=0;fontColor=#000000;" parent="vtmS_-P3p9IXf-DoCKi2-55" vertex="1">
          <mxGeometry y="390" width="290" height="30" as="geometry" />
        </mxCell>
        <mxCell id="vtmS_-P3p9IXf-DoCKi2-93" value="" style="shape=partialRectangle;connectable=0;fillColor=none;top=0;left=0;bottom=0;right=0;editable=1;overflow=hidden;fontColor=#000000;" parent="vtmS_-P3p9IXf-DoCKi2-92" vertex="1">
          <mxGeometry width="20" height="30" as="geometry">
            <mxRectangle width="20" height="30" as="alternateBounds" />
          </mxGeometry>
        </mxCell>
        <mxCell id="vtmS_-P3p9IXf-DoCKi2-94" value="username = models.CharField(max_length=500, null=True, blank=True)" style="shape=partialRectangle;connectable=0;fillColor=none;top=0;left=0;bottom=0;right=0;align=left;spacingLeft=6;overflow=hidden;fontColor=#000000;" parent="vtmS_-P3p9IXf-DoCKi2-92" vertex="1">
          <mxGeometry x="20" width="270" height="30" as="geometry">
            <mxRectangle width="270" height="30" as="alternateBounds" />
          </mxGeometry>
        </mxCell>
        <mxCell id="vtmS_-P3p9IXf-DoCKi2-95" value="" style="shape=tableRow;horizontal=0;startSize=0;swimlaneHead=0;swimlaneBody=0;fillColor=none;collapsible=0;dropTarget=0;points=[[0,0.5],[1,0.5]];portConstraint=eastwest;top=0;left=0;right=0;bottom=0;fontColor=#000000;" parent="vtmS_-P3p9IXf-DoCKi2-55" vertex="1">
          <mxGeometry y="420" width="290" height="30" as="geometry" />
        </mxCell>
        <mxCell id="vtmS_-P3p9IXf-DoCKi2-96" value="" style="shape=partialRectangle;connectable=0;fillColor=none;top=0;left=0;bottom=0;right=0;editable=1;overflow=hidden;fontColor=#000000;" parent="vtmS_-P3p9IXf-DoCKi2-95" vertex="1">
          <mxGeometry width="20" height="30" as="geometry">
            <mxRectangle width="20" height="30" as="alternateBounds" />
          </mxGeometry>
        </mxCell>
        <mxCell id="vtmS_-P3p9IXf-DoCKi2-97" value="fullname = models.URLField(max_length=500)" style="shape=partialRectangle;connectable=0;fillColor=none;top=0;left=0;bottom=0;right=0;align=left;spacingLeft=6;overflow=hidden;fontColor=#000000;" parent="vtmS_-P3p9IXf-DoCKi2-95" vertex="1">
          <mxGeometry x="20" width="270" height="30" as="geometry">
            <mxRectangle width="270" height="30" as="alternateBounds" />
          </mxGeometry>
        </mxCell>
        <mxCell id="vtmS_-P3p9IXf-DoCKi2-98" value="" style="shape=tableRow;horizontal=0;startSize=0;swimlaneHead=0;swimlaneBody=0;fillColor=none;collapsible=0;dropTarget=0;points=[[0,0.5],[1,0.5]];portConstraint=eastwest;top=0;left=0;right=0;bottom=0;fontColor=#000000;" parent="vtmS_-P3p9IXf-DoCKi2-55" vertex="1">
          <mxGeometry y="450" width="290" height="30" as="geometry" />
        </mxCell>
        <mxCell id="vtmS_-P3p9IXf-DoCKi2-99" value="" style="shape=partialRectangle;connectable=0;fillColor=none;top=0;left=0;bottom=0;right=0;editable=1;overflow=hidden;fontColor=#000000;" parent="vtmS_-P3p9IXf-DoCKi2-98" vertex="1">
          <mxGeometry width="20" height="30" as="geometry">
            <mxRectangle width="20" height="30" as="alternateBounds" />
          </mxGeometry>
        </mxCell>
        <mxCell id="vtmS_-P3p9IXf-DoCKi2-100" value="is_processed = models.BooleanField(default=False)" style="shape=partialRectangle;connectable=0;fillColor=none;top=0;left=0;bottom=0;right=0;align=left;spacingLeft=6;overflow=hidden;fontColor=#000000;" parent="vtmS_-P3p9IXf-DoCKi2-98" vertex="1">
          <mxGeometry x="20" width="270" height="30" as="geometry">
            <mxRectangle width="270" height="30" as="alternateBounds" />
          </mxGeometry>
        </mxCell>
        <mxCell id="0On6-TKZaCp5Xq4KQPA0-4" value="ShoppingListItem" style="swimlane;fontStyle=1;childLayout=stackLayout;horizontal=1;startSize=26;fillColor=none;horizontalStack=0;resizeParent=1;resizeParentMax=0;resizeLast=0;collapsible=1;marginBottom=0;" vertex="1" parent="1">
          <mxGeometry x="1010" y="-610" width="440" height="78" as="geometry">
            <mxRectangle x="-1830" y="1012" width="126" height="30" as="alternateBounds" />
          </mxGeometry>
        </mxCell>
        <mxCell id="0On6-TKZaCp5Xq4KQPA0-5" value="+ id = models.BigAutoField(primary_key=True)&#xa;" style="text;strokeColor=none;fillColor=none;align=left;verticalAlign=top;spacingLeft=4;spacingRight=4;overflow=hidden;rotatable=0;points=[[0,0.5],[1,0.5]];portConstraint=eastwest;" vertex="1" parent="0On6-TKZaCp5Xq4KQPA0-4">
          <mxGeometry y="26" width="440" height="26" as="geometry" />
        </mxCell>
        <mxCell id="0On6-TKZaCp5Xq4KQPA0-6" value="+ item_name = models.CharField(max_length=255)" style="text;strokeColor=none;fillColor=none;align=left;verticalAlign=top;spacingLeft=4;spacingRight=4;overflow=hidden;rotatable=0;points=[[0,0.5],[1,0.5]];portConstraint=eastwest;" vertex="1" parent="0On6-TKZaCp5Xq4KQPA0-4">
          <mxGeometry y="52" width="440" height="26" as="geometry" />
        </mxCell>
        <mxCell id="0On6-TKZaCp5Xq4KQPA0-7" value="ShoppingListProduct" style="swimlane;fontStyle=1;align=center;verticalAlign=top;childLayout=stackLayout;horizontal=1;startSize=26;horizontalStack=0;resizeParent=1;resizeParentMax=0;resizeLast=0;collapsible=1;marginBottom=0;" vertex="1" parent="1">
          <mxGeometry x="1570" y="-570" width="440" height="246" as="geometry">
            <mxRectangle x="-1826" y="740" width="146" height="30" as="alternateBounds" />
          </mxGeometry>
        </mxCell>
        <mxCell id="0On6-TKZaCp5Xq4KQPA0-8" value="+     id = models.BigAutoField(primary_key=True)&#xa;" style="text;strokeColor=none;fillColor=none;align=left;verticalAlign=top;spacingLeft=4;spacingRight=4;overflow=hidden;rotatable=0;points=[[0,0.5],[1,0.5]];portConstraint=eastwest;" vertex="1" parent="0On6-TKZaCp5Xq4KQPA0-7">
          <mxGeometry y="26" width="440" height="24" as="geometry" />
        </mxCell>
        <mxCell id="0On6-TKZaCp5Xq4KQPA0-9" value="+ shopify_product = models.ForeignKey(&#xa;                ShopifyProduct,&#xa;                on_delete=models.CASCADE,&#xa;                related_name=&quot;shopping_list_product&quot;,&#xa;                related_query_name=&quot;shopping_list_product&quot;,&#xa;                null=True,&#xa;                blank=True,&#xa;        )" style="text;strokeColor=none;fillColor=none;align=left;verticalAlign=top;spacingLeft=4;spacingRight=4;overflow=hidden;rotatable=0;points=[[0,0.5],[1,0.5]];portConstraint=eastwest;" vertex="1" parent="0On6-TKZaCp5Xq4KQPA0-7">
          <mxGeometry y="50" width="440" height="120" as="geometry" />
        </mxCell>
        <mxCell id="0On6-TKZaCp5Xq4KQPA0-10" value="+ shopping_list_item = models.ForeignKey(&#xa;                ShoppingListItem, null=True, blank=True, on_delete=models.RESTRICT&#xa;        )" style="text;strokeColor=none;fillColor=none;align=left;verticalAlign=top;spacingLeft=4;spacingRight=4;overflow=hidden;rotatable=0;points=[[0,0.5],[1,0.5]];portConstraint=eastwest;" vertex="1" parent="0On6-TKZaCp5Xq4KQPA0-7">
          <mxGeometry y="170" width="440" height="50" as="geometry" />
        </mxCell>
        <mxCell id="0On6-TKZaCp5Xq4KQPA0-11" value="+    shopping_list = models.ManyToManyField(ShoppingList, blank=True)&#xa;" style="text;strokeColor=none;fillColor=none;align=left;verticalAlign=top;spacingLeft=4;spacingRight=4;overflow=hidden;rotatable=0;points=[[0,0.5],[1,0.5]];portConstraint=eastwest;" vertex="1" parent="0On6-TKZaCp5Xq4KQPA0-7">
          <mxGeometry y="220" width="440" height="26" as="geometry" />
        </mxCell>
        <mxCell id="0On6-TKZaCp5Xq4KQPA0-12" style="edgeStyle=orthogonalEdgeStyle;rounded=0;orthogonalLoop=1;jettySize=auto;html=1;exitX=1;exitY=0.5;exitDx=0;exitDy=0;" edge="1" parent="0On6-TKZaCp5Xq4KQPA0-7">
          <mxGeometry relative="1" as="geometry">
            <mxPoint x="477" y="357" as="sourcePoint" />
            <mxPoint x="477" y="357" as="targetPoint" />
          </mxGeometry>
        </mxCell>
        <mxCell id="0On6-TKZaCp5Xq4KQPA0-13" value="" style="fontSize=12;html=1;endArrow=ERmany;startArrow=ERmany;rounded=0;entryX=-0.009;entryY=0.293;entryDx=0;entryDy=0;entryPerimeter=0;" edge="1" parent="1" target="0On6-TKZaCp5Xq4KQPA0-10">
          <mxGeometry width="100" height="100" relative="1" as="geometry">
            <mxPoint x="1010" y="-600" as="sourcePoint" />
            <mxPoint x="1180" y="-870" as="targetPoint" />
            <Array as="points">
              <mxPoint x="980" y="-600" />
              <mxPoint x="980" y="-385" />
            </Array>
          </mxGeometry>
        </mxCell>
        <mxCell id="0On6-TKZaCp5Xq4KQPA0-14" value="" style="fontSize=12;html=1;endArrow=ERmany;startArrow=ERmany;rounded=0;exitX=-0.002;exitY=0.025;exitDx=0;exitDy=0;exitPerimeter=0;entryX=0;entryY=0.5;entryDx=0;entryDy=0;" edge="1" parent="1" source="Mc_kpRLNQTw_WZLSpTaW-181" target="0On6-TKZaCp5Xq4KQPA0-11">
          <mxGeometry width="100" height="100" relative="1" as="geometry">
            <mxPoint x="560" y="-740" as="sourcePoint" />
            <mxPoint x="1620" y="-160" as="targetPoint" />
            <Array as="points">
              <mxPoint x="580" y="-640" />
              <mxPoint x="580" y="-160" />
              <mxPoint x="1430" y="-160" />
              <mxPoint x="1430" y="-337" />
            </Array>
          </mxGeometry>
        </mxCell>
        <mxCell id="0On6-TKZaCp5Xq4KQPA0-15" value="" style="fontSize=12;html=1;endArrow=ERmandOne;startArrow=ERmandOne;rounded=0;entryX=-0.009;entryY=0.081;entryDx=0;entryDy=0;entryPerimeter=0;exitX=0;exitY=0;exitDx=0;exitDy=0;" edge="1" parent="1" source="Mc_kpRLNQTw_WZLSpTaW-50" target="0On6-TKZaCp5Xq4KQPA0-9">
          <mxGeometry width="100" height="100" relative="1" as="geometry">
            <mxPoint x="1320" y="-510" as="sourcePoint" />
            <mxPoint x="930" y="-660" as="targetPoint" />
            <Array as="points">
              <mxPoint x="440" y="30" />
              <mxPoint x="440" y="-140" />
              <mxPoint x="1520" y="-140" />
              <mxPoint x="1520" y="-510" />
            </Array>
          </mxGeometry>
        </mxCell>
      </root>
    </mxGraphModel>
  </diagram>
</mxfile>
